<?xml version="1.0" encoding="utf-8" standalone="no"?>
<!DOCTYPE svg PUBLIC "-//W3C//DTD SVG 1.1//EN"
  "http://www.w3.org/Graphics/SVG/1.1/DTD/svg11.dtd">
<svg xmlns:xlink="http://www.w3.org/1999/xlink" width="1152pt" height="648pt" viewBox="0 0 1152 648" xmlns="http://www.w3.org/2000/svg" version="1.1">
 <metadata>
  <rdf:RDF xmlns:dc="http://purl.org/dc/elements/1.1/" xmlns:cc="http://creativecommons.org/ns#" xmlns:rdf="http://www.w3.org/1999/02/22-rdf-syntax-ns#">
   <cc:Work>
    <dc:type rdf:resource="http://purl.org/dc/dcmitype/StillImage"/>
    <dc:date>2023-09-26T09:52:37.055221</dc:date>
    <dc:format>image/svg+xml</dc:format>
    <dc:creator>
     <cc:Agent>
      <dc:title>Matplotlib v3.7.0, https://matplotlib.org/</dc:title>
     </cc:Agent>
    </dc:creator>
   </cc:Work>
  </rdf:RDF>
 </metadata>
 <defs>
  <style type="text/css">*{stroke-linejoin: round; stroke-linecap: butt}</style>
 </defs>
 <g id="figure_1">
  <g id="patch_1">
   <path d="M 0 648 
L 1152 648 
L 1152 0 
L 0 0 
z
" style="fill: #ffffff"/>
  </g>
  <g id="axes_1">
   <g id="patch_2">
    <path d="M 144 576.72 
L 1036.8 576.72 
L 1036.8 77.76 
L 144 77.76 
z
" style="fill: #ffffff"/>
   </g>
   <g id="matplotlib.axis_1">
    <g id="xtick_1">
     <g id="line2d_1">
      <defs>
       <path id="med5fa7a042" d="M 0 0 
L 0 -6 
" style="stroke: #000000; stroke-width: 0.8"/>
      </defs>
      <g>
       <use xlink:href="#med5fa7a042" x="144" y="576.72" style="stroke: #000000; stroke-width: 0.8"/>
      </g>
     </g>
     <g id="text_1">
      <!-- $\mathdefault{10^{-4}}$ -->
      <g transform="translate(116.39 596.936563) scale(0.22 -0.22)">
       <defs>
        <path id="DejaVuSerif-Bold-31" d="M 878 0 
L 878 378 
L 1753 378 
L 1753 4153 
L 781 3578 
L 781 4044 
L 1953 4750 
L 2938 4750 
L 2938 378 
L 3816 378 
L 3816 0 
L 878 0 
z
" transform="scale(0.015625)"/>
        <path id="DejaVuSerif-Bold-30" d="M 2228 275 
Q 2603 275 2742 615 
Q 2881 956 2881 2328 
Q 2881 3691 2742 4037 
Q 2603 4384 2228 4384 
Q 1853 4384 1714 4043 
Q 1575 3703 1575 2328 
Q 1575 956 1714 615 
Q 1853 275 2228 275 
z
M 2228 -91 
Q 1294 -91 797 532 
Q 300 1156 300 2328 
Q 300 3500 797 4125 
Q 1294 4750 2228 4750 
Q 3159 4750 3656 4125 
Q 4153 3500 4153 2328 
Q 4153 1156 3656 532 
Q 3159 -91 2228 -91 
z
" transform="scale(0.015625)"/>
        <path id="DejaVuSerif-Bold-2212" d="M 678 2363 
L 4684 2363 
L 4684 1644 
L 678 1644 
L 678 2363 
z
" transform="scale(0.015625)"/>
        <path id="DejaVuSerif-Bold-34" d="M 4084 0 
L 1516 0 
L 1516 378 
L 2209 378 
L 2209 1228 
L 263 1228 
L 263 1588 
L 2216 4750 
L 3391 4750 
L 3391 1631 
L 4191 1631 
L 4191 1228 
L 3391 1228 
L 3391 378 
L 4084 378 
L 4084 0 
z
M 2209 1631 
L 2209 3897 
L 819 1631 
L 2209 1631 
z
" transform="scale(0.015625)"/>
       </defs>
       <use xlink:href="#DejaVuSerif-Bold-31" transform="translate(0 0.7125)"/>
       <use xlink:href="#DejaVuSerif-Bold-30" transform="translate(69.580078 0.7125)"/>
       <use xlink:href="#DejaVuSerif-Bold-2212" transform="translate(140.068516 37.046875) scale(0.7)"/>
       <use xlink:href="#DejaVuSerif-Bold-34" transform="translate(198.720859 37.046875) scale(0.7)"/>
      </g>
     </g>
    </g>
    <g id="xtick_2">
     <g id="line2d_2">
      <g>
       <use xlink:href="#med5fa7a042" x="367.2" y="576.72" style="stroke: #000000; stroke-width: 0.8"/>
      </g>
     </g>
     <g id="text_2">
      <!-- $\mathdefault{10^{-3}}$ -->
      <g transform="translate(339.59 596.936563) scale(0.22 -0.22)">
       <defs>
        <path id="DejaVuSerif-Bold-33" d="M 550 4531 
Q 963 4641 1350 4695 
Q 1738 4750 2106 4750 
Q 2950 4750 3401 4448 
Q 3853 4147 3853 3584 
Q 3853 3163 3593 2900 
Q 3334 2638 2834 2547 
Q 3444 2450 3744 2131 
Q 4044 1813 4044 1259 
Q 4044 606 3526 257 
Q 3009 -91 2028 -91 
Q 1659 -91 1267 -28 
Q 875 34 447 159 
L 447 1184 
L 825 1184 
Q 859 741 1103 508 
Q 1347 275 1778 275 
Q 2253 275 2512 539 
Q 2772 803 2772 1288 
Q 2772 1794 2501 2069 
Q 2231 2344 1734 2344 
L 1528 2344 
L 1528 2719 
L 1691 2719 
Q 2150 2719 2381 2931 
Q 2613 3144 2613 3566 
Q 2613 3963 2395 4173 
Q 2178 4384 1772 4384 
Q 1403 4384 1187 4182 
Q 972 3981 928 3597 
L 550 3597 
L 550 4531 
z
" transform="scale(0.015625)"/>
       </defs>
       <use xlink:href="#DejaVuSerif-Bold-31" transform="translate(0 0.7125)"/>
       <use xlink:href="#DejaVuSerif-Bold-30" transform="translate(69.580078 0.7125)"/>
       <use xlink:href="#DejaVuSerif-Bold-2212" transform="translate(140.068516 37.046875) scale(0.7)"/>
       <use xlink:href="#DejaVuSerif-Bold-33" transform="translate(198.720859 37.046875) scale(0.7)"/>
      </g>
     </g>
    </g>
    <g id="xtick_3">
     <g id="line2d_3">
      <g>
       <use xlink:href="#med5fa7a042" x="590.4" y="576.72" style="stroke: #000000; stroke-width: 0.8"/>
      </g>
     </g>
     <g id="text_3">
      <!-- $\mathdefault{10^{-2}}$ -->
      <g transform="translate(562.79 596.936563) scale(0.22 -0.22)">
       <defs>
        <path id="DejaVuSerif-Bold-32" d="M 844 3513 
L 469 3513 
L 469 4519 
Q 850 4634 1223 4692 
Q 1597 4750 1978 4750 
Q 2869 4750 3367 4386 
Q 3866 4022 3866 3372 
Q 3866 2909 3591 2542 
Q 3316 2175 2541 1672 
L 1241 819 
L 3450 819 
L 3450 1369 
L 3878 1369 
L 3878 0 
L 428 0 
L 428 763 
L 1119 1241 
Q 2003 1850 2297 2278 
Q 2591 2706 2591 3278 
Q 2591 3819 2367 4101 
Q 2144 4384 1716 4384 
Q 1347 4384 1125 4161 
Q 903 3938 844 3513 
z
" transform="scale(0.015625)"/>
       </defs>
       <use xlink:href="#DejaVuSerif-Bold-31" transform="translate(0 0.7125)"/>
       <use xlink:href="#DejaVuSerif-Bold-30" transform="translate(69.580078 0.7125)"/>
       <use xlink:href="#DejaVuSerif-Bold-2212" transform="translate(140.068516 37.046875) scale(0.7)"/>
       <use xlink:href="#DejaVuSerif-Bold-32" transform="translate(198.720859 37.046875) scale(0.7)"/>
      </g>
     </g>
    </g>
    <g id="xtick_4">
     <g id="line2d_4">
      <g>
       <use xlink:href="#med5fa7a042" x="813.6" y="576.72" style="stroke: #000000; stroke-width: 0.8"/>
      </g>
     </g>
     <g id="text_4">
      <!-- $\mathdefault{10^{-1}}$ -->
      <g transform="translate(785.99 596.936563) scale(0.22 -0.22)">
       <use xlink:href="#DejaVuSerif-Bold-31" transform="translate(0 0.7125)"/>
       <use xlink:href="#DejaVuSerif-Bold-30" transform="translate(69.580078 0.7125)"/>
       <use xlink:href="#DejaVuSerif-Bold-2212" transform="translate(140.068516 37.046875) scale(0.7)"/>
       <use xlink:href="#DejaVuSerif-Bold-31" transform="translate(198.720859 37.046875) scale(0.7)"/>
      </g>
     </g>
    </g>
    <g id="xtick_5">
     <g id="line2d_5">
      <g>
       <use xlink:href="#med5fa7a042" x="1036.8" y="576.72" style="stroke: #000000; stroke-width: 0.8"/>
      </g>
     </g>
     <g id="text_5">
      <!-- $\mathdefault{10^{0}}$ -->
      <g transform="translate(1015.68 596.936563) scale(0.22 -0.22)">
       <use xlink:href="#DejaVuSerif-Bold-31" transform="translate(0 0.7125)"/>
       <use xlink:href="#DejaVuSerif-Bold-30" transform="translate(69.580078 0.7125)"/>
       <use xlink:href="#DejaVuSerif-Bold-30" transform="translate(140.068516 37.046875) scale(0.7)"/>
      </g>
     </g>
    </g>
    <g id="xtick_6">
     <g id="line2d_6">
      <defs>
       <path id="m834863dd12" d="M 0 0 
L 0 -3 
" style="stroke: #000000; stroke-width: 0.6"/>
      </defs>
      <g>
       <use xlink:href="#m834863dd12" x="211.189895" y="576.72" style="stroke: #000000; stroke-width: 0.6"/>
      </g>
     </g>
    </g>
    <g id="xtick_7">
     <g id="line2d_7">
      <g>
       <use xlink:href="#m834863dd12" x="250.493464" y="576.72" style="stroke: #000000; stroke-width: 0.6"/>
      </g>
     </g>
    </g>
    <g id="xtick_8">
     <g id="line2d_8">
      <g>
       <use xlink:href="#m834863dd12" x="278.37979" y="576.72" style="stroke: #000000; stroke-width: 0.6"/>
      </g>
     </g>
    </g>
    <g id="xtick_9">
     <g id="line2d_9">
      <g>
       <use xlink:href="#m834863dd12" x="300.010105" y="576.72" style="stroke: #000000; stroke-width: 0.6"/>
      </g>
     </g>
    </g>
    <g id="xtick_10">
     <g id="line2d_10">
      <g>
       <use xlink:href="#m834863dd12" x="317.683359" y="576.72" style="stroke: #000000; stroke-width: 0.6"/>
      </g>
     </g>
    </g>
    <g id="xtick_11">
     <g id="line2d_11">
      <g>
       <use xlink:href="#m834863dd12" x="332.625883" y="576.72" style="stroke: #000000; stroke-width: 0.6"/>
      </g>
     </g>
    </g>
    <g id="xtick_12">
     <g id="line2d_12">
      <g>
       <use xlink:href="#m834863dd12" x="345.569685" y="576.72" style="stroke: #000000; stroke-width: 0.6"/>
      </g>
     </g>
    </g>
    <g id="xtick_13">
     <g id="line2d_13">
      <g>
       <use xlink:href="#m834863dd12" x="356.986928" y="576.72" style="stroke: #000000; stroke-width: 0.6"/>
      </g>
     </g>
    </g>
    <g id="xtick_14">
     <g id="line2d_14">
      <g>
       <use xlink:href="#m834863dd12" x="434.389895" y="576.72" style="stroke: #000000; stroke-width: 0.6"/>
      </g>
     </g>
    </g>
    <g id="xtick_15">
     <g id="line2d_15">
      <g>
       <use xlink:href="#m834863dd12" x="473.693464" y="576.72" style="stroke: #000000; stroke-width: 0.6"/>
      </g>
     </g>
    </g>
    <g id="xtick_16">
     <g id="line2d_16">
      <g>
       <use xlink:href="#m834863dd12" x="501.57979" y="576.72" style="stroke: #000000; stroke-width: 0.6"/>
      </g>
     </g>
    </g>
    <g id="xtick_17">
     <g id="line2d_17">
      <g>
       <use xlink:href="#m834863dd12" x="523.210105" y="576.72" style="stroke: #000000; stroke-width: 0.6"/>
      </g>
     </g>
    </g>
    <g id="xtick_18">
     <g id="line2d_18">
      <g>
       <use xlink:href="#m834863dd12" x="540.883359" y="576.72" style="stroke: #000000; stroke-width: 0.6"/>
      </g>
     </g>
    </g>
    <g id="xtick_19">
     <g id="line2d_19">
      <g>
       <use xlink:href="#m834863dd12" x="555.825883" y="576.72" style="stroke: #000000; stroke-width: 0.6"/>
      </g>
     </g>
    </g>
    <g id="xtick_20">
     <g id="line2d_20">
      <g>
       <use xlink:href="#m834863dd12" x="568.769685" y="576.72" style="stroke: #000000; stroke-width: 0.6"/>
      </g>
     </g>
    </g>
    <g id="xtick_21">
     <g id="line2d_21">
      <g>
       <use xlink:href="#m834863dd12" x="580.186928" y="576.72" style="stroke: #000000; stroke-width: 0.6"/>
      </g>
     </g>
    </g>
    <g id="xtick_22">
     <g id="line2d_22">
      <g>
       <use xlink:href="#m834863dd12" x="657.589895" y="576.72" style="stroke: #000000; stroke-width: 0.6"/>
      </g>
     </g>
    </g>
    <g id="xtick_23">
     <g id="line2d_23">
      <g>
       <use xlink:href="#m834863dd12" x="696.893464" y="576.72" style="stroke: #000000; stroke-width: 0.6"/>
      </g>
     </g>
    </g>
    <g id="xtick_24">
     <g id="line2d_24">
      <g>
       <use xlink:href="#m834863dd12" x="724.77979" y="576.72" style="stroke: #000000; stroke-width: 0.6"/>
      </g>
     </g>
    </g>
    <g id="xtick_25">
     <g id="line2d_25">
      <g>
       <use xlink:href="#m834863dd12" x="746.410105" y="576.72" style="stroke: #000000; stroke-width: 0.6"/>
      </g>
     </g>
    </g>
    <g id="xtick_26">
     <g id="line2d_26">
      <g>
       <use xlink:href="#m834863dd12" x="764.083359" y="576.72" style="stroke: #000000; stroke-width: 0.6"/>
      </g>
     </g>
    </g>
    <g id="xtick_27">
     <g id="line2d_27">
      <g>
       <use xlink:href="#m834863dd12" x="779.025883" y="576.72" style="stroke: #000000; stroke-width: 0.6"/>
      </g>
     </g>
    </g>
    <g id="xtick_28">
     <g id="line2d_28">
      <g>
       <use xlink:href="#m834863dd12" x="791.969685" y="576.72" style="stroke: #000000; stroke-width: 0.6"/>
      </g>
     </g>
    </g>
    <g id="xtick_29">
     <g id="line2d_29">
      <g>
       <use xlink:href="#m834863dd12" x="803.386928" y="576.72" style="stroke: #000000; stroke-width: 0.6"/>
      </g>
     </g>
    </g>
    <g id="xtick_30">
     <g id="line2d_30">
      <g>
       <use xlink:href="#m834863dd12" x="880.789895" y="576.72" style="stroke: #000000; stroke-width: 0.6"/>
      </g>
     </g>
    </g>
    <g id="xtick_31">
     <g id="line2d_31">
      <g>
       <use xlink:href="#m834863dd12" x="920.093464" y="576.72" style="stroke: #000000; stroke-width: 0.6"/>
      </g>
     </g>
    </g>
    <g id="xtick_32">
     <g id="line2d_32">
      <g>
       <use xlink:href="#m834863dd12" x="947.97979" y="576.72" style="stroke: #000000; stroke-width: 0.6"/>
      </g>
     </g>
    </g>
    <g id="xtick_33">
     <g id="line2d_33">
      <g>
       <use xlink:href="#m834863dd12" x="969.610105" y="576.72" style="stroke: #000000; stroke-width: 0.6"/>
      </g>
     </g>
    </g>
    <g id="xtick_34">
     <g id="line2d_34">
      <g>
       <use xlink:href="#m834863dd12" x="987.283359" y="576.72" style="stroke: #000000; stroke-width: 0.6"/>
      </g>
     </g>
    </g>
    <g id="xtick_35">
     <g id="line2d_35">
      <g>
       <use xlink:href="#m834863dd12" x="1002.225883" y="576.72" style="stroke: #000000; stroke-width: 0.6"/>
      </g>
     </g>
    </g>
    <g id="xtick_36">
     <g id="line2d_36">
      <g>
       <use xlink:href="#m834863dd12" x="1015.169685" y="576.72" style="stroke: #000000; stroke-width: 0.6"/>
      </g>
     </g>
    </g>
    <g id="xtick_37">
     <g id="line2d_37">
      <g>
       <use xlink:href="#m834863dd12" x="1026.586928" y="576.72" style="stroke: #000000; stroke-width: 0.6"/>
      </g>
     </g>
    </g>
    <g id="text_6">
     <!-- $1-e$ -->
     <g transform="translate(562.57 622.228438) scale(0.22 -0.22)">
      <defs>
       <path id="DejaVuSerif-Bold-65" d="M 2566 1875 
Q 2566 2531 2444 2795 
Q 2322 3059 2028 3059 
Q 1744 3059 1620 2800 
Q 1497 2541 1497 1931 
L 1497 1875 
L 2566 1875 
z
M 3781 1503 
L 1497 1503 
L 1497 1478 
Q 1497 834 1690 548 
Q 1884 263 2316 263 
Q 2675 263 2897 453 
Q 3119 644 3181 1006 
L 3700 1006 
Q 3566 441 3166 175 
Q 2766 -91 2047 -91 
Q 1184 -91 723 364 
Q 263 819 263 1663 
Q 263 2488 734 2950 
Q 1206 3413 2047 3413 
Q 2872 3413 3312 2927 
Q 3753 2441 3781 1503 
z
" transform="scale(0.015625)"/>
      </defs>
      <use xlink:href="#DejaVuSerif-Bold-31" transform="translate(0 0.78125)"/>
      <use xlink:href="#DejaVuSerif-Bold-2212" transform="translate(87.138672 0.78125)"/>
      <use xlink:href="#DejaVuSerif-Bold-65" transform="translate(188.486328 0.78125)"/>
     </g>
    </g>
   </g>
   <g id="matplotlib.axis_2">
    <g id="ytick_1">
     <g id="line2d_38">
      <defs>
       <path id="m53427b2d90" d="M 0 0 
L 6 0 
" style="stroke: #000000; stroke-width: 0.8"/>
      </defs>
      <g>
       <use xlink:href="#m53427b2d90" x="144" y="515.523315" style="stroke: #000000; stroke-width: 0.8"/>
      </g>
     </g>
     <g id="text_7">
      <!-- $\mathdefault{10^{-5}}$ -->
      <g transform="translate(85.28 523.881596) scale(0.22 -0.22)">
       <defs>
        <path id="DejaVuSerif-Bold-35" d="M 3609 4666 
L 3609 3847 
L 1113 3847 
L 1113 2822 
Q 1319 2981 1572 3062 
Q 1825 3144 2106 3144 
Q 2969 3144 3469 2708 
Q 3969 2272 3969 1522 
Q 3969 759 3469 334 
Q 2969 -91 2069 -91 
Q 1688 -91 1311 -28 
Q 934 34 525 166 
L 525 1184 
L 900 1184 
Q 919 725 1139 500 
Q 1359 275 1791 275 
Q 2250 275 2472 583 
Q 2694 891 2694 1522 
Q 2694 2144 2476 2451 
Q 2259 2759 1819 2759 
Q 1581 2759 1395 2661 
Q 1209 2563 1050 2356 
L 738 2356 
L 738 4666 
L 3609 4666 
z
" transform="scale(0.015625)"/>
       </defs>
       <use xlink:href="#DejaVuSerif-Bold-31" transform="translate(0 0.63125)"/>
       <use xlink:href="#DejaVuSerif-Bold-30" transform="translate(69.580078 0.63125)"/>
       <use xlink:href="#DejaVuSerif-Bold-2212" transform="translate(140.068516 36.965625) scale(0.7)"/>
       <use xlink:href="#DejaVuSerif-Bold-35" transform="translate(198.720859 36.965625) scale(0.7)"/>
      </g>
     </g>
    </g>
    <g id="ytick_2">
     <g id="line2d_39">
      <g>
       <use xlink:href="#m53427b2d90" x="144" y="427.970652" style="stroke: #000000; stroke-width: 0.8"/>
      </g>
     </g>
     <g id="text_8">
      <!-- $\mathdefault{10^{-4}}$ -->
      <g transform="translate(85.28 436.328933) scale(0.22 -0.22)">
       <use xlink:href="#DejaVuSerif-Bold-31" transform="translate(0 0.7125)"/>
       <use xlink:href="#DejaVuSerif-Bold-30" transform="translate(69.580078 0.7125)"/>
       <use xlink:href="#DejaVuSerif-Bold-2212" transform="translate(140.068516 37.046875) scale(0.7)"/>
       <use xlink:href="#DejaVuSerif-Bold-34" transform="translate(198.720859 37.046875) scale(0.7)"/>
      </g>
     </g>
    </g>
    <g id="ytick_3">
     <g id="line2d_40">
      <g>
       <use xlink:href="#m53427b2d90" x="144" y="340.417989" style="stroke: #000000; stroke-width: 0.8"/>
      </g>
     </g>
     <g id="text_9">
      <!-- $\mathdefault{10^{-3}}$ -->
      <g transform="translate(85.28 348.77627) scale(0.22 -0.22)">
       <use xlink:href="#DejaVuSerif-Bold-31" transform="translate(0 0.7125)"/>
       <use xlink:href="#DejaVuSerif-Bold-30" transform="translate(69.580078 0.7125)"/>
       <use xlink:href="#DejaVuSerif-Bold-2212" transform="translate(140.068516 37.046875) scale(0.7)"/>
       <use xlink:href="#DejaVuSerif-Bold-33" transform="translate(198.720859 37.046875) scale(0.7)"/>
      </g>
     </g>
    </g>
    <g id="ytick_4">
     <g id="line2d_41">
      <g>
       <use xlink:href="#m53427b2d90" x="144" y="252.865326" style="stroke: #000000; stroke-width: 0.8"/>
      </g>
     </g>
     <g id="text_10">
      <!-- $\mathdefault{10^{-2}}$ -->
      <g transform="translate(85.28 261.223607) scale(0.22 -0.22)">
       <use xlink:href="#DejaVuSerif-Bold-31" transform="translate(0 0.7125)"/>
       <use xlink:href="#DejaVuSerif-Bold-30" transform="translate(69.580078 0.7125)"/>
       <use xlink:href="#DejaVuSerif-Bold-2212" transform="translate(140.068516 37.046875) scale(0.7)"/>
       <use xlink:href="#DejaVuSerif-Bold-32" transform="translate(198.720859 37.046875) scale(0.7)"/>
      </g>
     </g>
    </g>
    <g id="ytick_5">
     <g id="line2d_42">
      <g>
       <use xlink:href="#m53427b2d90" x="144" y="165.312663" style="stroke: #000000; stroke-width: 0.8"/>
      </g>
     </g>
     <g id="text_11">
      <!-- $\mathdefault{10^{-1}}$ -->
      <g transform="translate(85.28 173.670944) scale(0.22 -0.22)">
       <use xlink:href="#DejaVuSerif-Bold-31" transform="translate(0 0.7125)"/>
       <use xlink:href="#DejaVuSerif-Bold-30" transform="translate(69.580078 0.7125)"/>
       <use xlink:href="#DejaVuSerif-Bold-2212" transform="translate(140.068516 37.046875) scale(0.7)"/>
       <use xlink:href="#DejaVuSerif-Bold-31" transform="translate(198.720859 37.046875) scale(0.7)"/>
      </g>
     </g>
    </g>
    <g id="ytick_6">
     <g id="line2d_43">
      <g>
       <use xlink:href="#m53427b2d90" x="144" y="77.76" style="stroke: #000000; stroke-width: 0.8"/>
      </g>
     </g>
     <g id="text_12">
      <!-- $\mathdefault{10^{0}}$ -->
      <g transform="translate(98.26 86.118281) scale(0.22 -0.22)">
       <use xlink:href="#DejaVuSerif-Bold-31" transform="translate(0 0.7125)"/>
       <use xlink:href="#DejaVuSerif-Bold-30" transform="translate(69.580078 0.7125)"/>
       <use xlink:href="#DejaVuSerif-Bold-30" transform="translate(140.068516 37.046875) scale(0.7)"/>
      </g>
     </g>
    </g>
    <g id="ytick_7">
     <g id="line2d_44">
      <defs>
       <path id="m104cfc232e" d="M 0 0 
L 3 0 
" style="stroke: #000000; stroke-width: 0.6"/>
      </defs>
      <g>
       <use xlink:href="#m104cfc232e" x="144" y="576.72" style="stroke: #000000; stroke-width: 0.6"/>
      </g>
     </g>
    </g>
    <g id="ytick_8">
     <g id="line2d_45">
      <g>
       <use xlink:href="#m104cfc232e" x="144" y="561.302741" style="stroke: #000000; stroke-width: 0.6"/>
      </g>
     </g>
    </g>
    <g id="ytick_9">
     <g id="line2d_46">
      <g>
       <use xlink:href="#m104cfc232e" x="144" y="550.364022" style="stroke: #000000; stroke-width: 0.6"/>
      </g>
     </g>
    </g>
    <g id="ytick_10">
     <g id="line2d_47">
      <g>
       <use xlink:href="#m104cfc232e" x="144" y="541.879293" style="stroke: #000000; stroke-width: 0.6"/>
      </g>
     </g>
    </g>
    <g id="ytick_11">
     <g id="line2d_48">
      <g>
       <use xlink:href="#m104cfc232e" x="144" y="534.946764" style="stroke: #000000; stroke-width: 0.6"/>
      </g>
     </g>
    </g>
    <g id="ytick_12">
     <g id="line2d_49">
      <g>
       <use xlink:href="#m104cfc232e" x="144" y="529.085394" style="stroke: #000000; stroke-width: 0.6"/>
      </g>
     </g>
    </g>
    <g id="ytick_13">
     <g id="line2d_50">
      <g>
       <use xlink:href="#m104cfc232e" x="144" y="524.008044" style="stroke: #000000; stroke-width: 0.6"/>
      </g>
     </g>
    </g>
    <g id="ytick_14">
     <g id="line2d_51">
      <g>
       <use xlink:href="#m104cfc232e" x="144" y="519.529505" style="stroke: #000000; stroke-width: 0.6"/>
      </g>
     </g>
    </g>
    <g id="ytick_15">
     <g id="line2d_52">
      <g>
       <use xlink:href="#m104cfc232e" x="144" y="489.167337" style="stroke: #000000; stroke-width: 0.6"/>
      </g>
     </g>
    </g>
    <g id="ytick_16">
     <g id="line2d_53">
      <g>
       <use xlink:href="#m104cfc232e" x="144" y="473.750078" style="stroke: #000000; stroke-width: 0.6"/>
      </g>
     </g>
    </g>
    <g id="ytick_17">
     <g id="line2d_54">
      <g>
       <use xlink:href="#m104cfc232e" x="144" y="462.811359" style="stroke: #000000; stroke-width: 0.6"/>
      </g>
     </g>
    </g>
    <g id="ytick_18">
     <g id="line2d_55">
      <g>
       <use xlink:href="#m104cfc232e" x="144" y="454.32663" style="stroke: #000000; stroke-width: 0.6"/>
      </g>
     </g>
    </g>
    <g id="ytick_19">
     <g id="line2d_56">
      <g>
       <use xlink:href="#m104cfc232e" x="144" y="447.394101" style="stroke: #000000; stroke-width: 0.6"/>
      </g>
     </g>
    </g>
    <g id="ytick_20">
     <g id="line2d_57">
      <g>
       <use xlink:href="#m104cfc232e" x="144" y="441.532731" style="stroke: #000000; stroke-width: 0.6"/>
      </g>
     </g>
    </g>
    <g id="ytick_21">
     <g id="line2d_58">
      <g>
       <use xlink:href="#m104cfc232e" x="144" y="436.455382" style="stroke: #000000; stroke-width: 0.6"/>
      </g>
     </g>
    </g>
    <g id="ytick_22">
     <g id="line2d_59">
      <g>
       <use xlink:href="#m104cfc232e" x="144" y="431.976842" style="stroke: #000000; stroke-width: 0.6"/>
      </g>
     </g>
    </g>
    <g id="ytick_23">
     <g id="line2d_60">
      <g>
       <use xlink:href="#m104cfc232e" x="144" y="401.614674" style="stroke: #000000; stroke-width: 0.6"/>
      </g>
     </g>
    </g>
    <g id="ytick_24">
     <g id="line2d_61">
      <g>
       <use xlink:href="#m104cfc232e" x="144" y="386.197415" style="stroke: #000000; stroke-width: 0.6"/>
      </g>
     </g>
    </g>
    <g id="ytick_25">
     <g id="line2d_62">
      <g>
       <use xlink:href="#m104cfc232e" x="144" y="375.258696" style="stroke: #000000; stroke-width: 0.6"/>
      </g>
     </g>
    </g>
    <g id="ytick_26">
     <g id="line2d_63">
      <g>
       <use xlink:href="#m104cfc232e" x="144" y="366.773967" style="stroke: #000000; stroke-width: 0.6"/>
      </g>
     </g>
    </g>
    <g id="ytick_27">
     <g id="line2d_64">
      <g>
       <use xlink:href="#m104cfc232e" x="144" y="359.841438" style="stroke: #000000; stroke-width: 0.6"/>
      </g>
     </g>
    </g>
    <g id="ytick_28">
     <g id="line2d_65">
      <g>
       <use xlink:href="#m104cfc232e" x="144" y="353.980068" style="stroke: #000000; stroke-width: 0.6"/>
      </g>
     </g>
    </g>
    <g id="ytick_29">
     <g id="line2d_66">
      <g>
       <use xlink:href="#m104cfc232e" x="144" y="348.902719" style="stroke: #000000; stroke-width: 0.6"/>
      </g>
     </g>
    </g>
    <g id="ytick_30">
     <g id="line2d_67">
      <g>
       <use xlink:href="#m104cfc232e" x="144" y="344.424179" style="stroke: #000000; stroke-width: 0.6"/>
      </g>
     </g>
    </g>
    <g id="ytick_31">
     <g id="line2d_68">
      <g>
       <use xlink:href="#m104cfc232e" x="144" y="314.062011" style="stroke: #000000; stroke-width: 0.6"/>
      </g>
     </g>
    </g>
    <g id="ytick_32">
     <g id="line2d_69">
      <g>
       <use xlink:href="#m104cfc232e" x="144" y="298.644752" style="stroke: #000000; stroke-width: 0.6"/>
      </g>
     </g>
    </g>
    <g id="ytick_33">
     <g id="line2d_70">
      <g>
       <use xlink:href="#m104cfc232e" x="144" y="287.706033" style="stroke: #000000; stroke-width: 0.6"/>
      </g>
     </g>
    </g>
    <g id="ytick_34">
     <g id="line2d_71">
      <g>
       <use xlink:href="#m104cfc232e" x="144" y="279.221304" style="stroke: #000000; stroke-width: 0.6"/>
      </g>
     </g>
    </g>
    <g id="ytick_35">
     <g id="line2d_72">
      <g>
       <use xlink:href="#m104cfc232e" x="144" y="272.288775" style="stroke: #000000; stroke-width: 0.6"/>
      </g>
     </g>
    </g>
    <g id="ytick_36">
     <g id="line2d_73">
      <g>
       <use xlink:href="#m104cfc232e" x="144" y="266.427405" style="stroke: #000000; stroke-width: 0.6"/>
      </g>
     </g>
    </g>
    <g id="ytick_37">
     <g id="line2d_74">
      <g>
       <use xlink:href="#m104cfc232e" x="144" y="261.350056" style="stroke: #000000; stroke-width: 0.6"/>
      </g>
     </g>
    </g>
    <g id="ytick_38">
     <g id="line2d_75">
      <g>
       <use xlink:href="#m104cfc232e" x="144" y="256.871516" style="stroke: #000000; stroke-width: 0.6"/>
      </g>
     </g>
    </g>
    <g id="ytick_39">
     <g id="line2d_76">
      <g>
       <use xlink:href="#m104cfc232e" x="144" y="226.509348" style="stroke: #000000; stroke-width: 0.6"/>
      </g>
     </g>
    </g>
    <g id="ytick_40">
     <g id="line2d_77">
      <g>
       <use xlink:href="#m104cfc232e" x="144" y="211.09209" style="stroke: #000000; stroke-width: 0.6"/>
      </g>
     </g>
    </g>
    <g id="ytick_41">
     <g id="line2d_78">
      <g>
       <use xlink:href="#m104cfc232e" x="144" y="200.15337" style="stroke: #000000; stroke-width: 0.6"/>
      </g>
     </g>
    </g>
    <g id="ytick_42">
     <g id="line2d_79">
      <g>
       <use xlink:href="#m104cfc232e" x="144" y="191.668641" style="stroke: #000000; stroke-width: 0.6"/>
      </g>
     </g>
    </g>
    <g id="ytick_43">
     <g id="line2d_80">
      <g>
       <use xlink:href="#m104cfc232e" x="144" y="184.736112" style="stroke: #000000; stroke-width: 0.6"/>
      </g>
     </g>
    </g>
    <g id="ytick_44">
     <g id="line2d_81">
      <g>
       <use xlink:href="#m104cfc232e" x="144" y="178.874742" style="stroke: #000000; stroke-width: 0.6"/>
      </g>
     </g>
    </g>
    <g id="ytick_45">
     <g id="line2d_82">
      <g>
       <use xlink:href="#m104cfc232e" x="144" y="173.797393" style="stroke: #000000; stroke-width: 0.6"/>
      </g>
     </g>
    </g>
    <g id="ytick_46">
     <g id="line2d_83">
      <g>
       <use xlink:href="#m104cfc232e" x="144" y="169.318853" style="stroke: #000000; stroke-width: 0.6"/>
      </g>
     </g>
    </g>
    <g id="ytick_47">
     <g id="line2d_84">
      <g>
       <use xlink:href="#m104cfc232e" x="144" y="138.956685" style="stroke: #000000; stroke-width: 0.6"/>
      </g>
     </g>
    </g>
    <g id="ytick_48">
     <g id="line2d_85">
      <g>
       <use xlink:href="#m104cfc232e" x="144" y="123.539427" style="stroke: #000000; stroke-width: 0.6"/>
      </g>
     </g>
    </g>
    <g id="ytick_49">
     <g id="line2d_86">
      <g>
       <use xlink:href="#m104cfc232e" x="144" y="112.600707" style="stroke: #000000; stroke-width: 0.6"/>
      </g>
     </g>
    </g>
    <g id="ytick_50">
     <g id="line2d_87">
      <g>
       <use xlink:href="#m104cfc232e" x="144" y="104.115978" style="stroke: #000000; stroke-width: 0.6"/>
      </g>
     </g>
    </g>
    <g id="ytick_51">
     <g id="line2d_88">
      <g>
       <use xlink:href="#m104cfc232e" x="144" y="97.183449" style="stroke: #000000; stroke-width: 0.6"/>
      </g>
     </g>
    </g>
    <g id="ytick_52">
     <g id="line2d_89">
      <g>
       <use xlink:href="#m104cfc232e" x="144" y="91.322079" style="stroke: #000000; stroke-width: 0.6"/>
      </g>
     </g>
    </g>
    <g id="ytick_53">
     <g id="line2d_90">
      <g>
       <use xlink:href="#m104cfc232e" x="144" y="86.24473" style="stroke: #000000; stroke-width: 0.6"/>
      </g>
     </g>
    </g>
    <g id="ytick_54">
     <g id="line2d_91">
      <g>
       <use xlink:href="#m104cfc232e" x="144" y="81.76619" style="stroke: #000000; stroke-width: 0.6"/>
      </g>
     </g>
    </g>
    <g id="text_13">
     <!-- $D_{\rm jj} [Myr^{-1}]$ -->
     <g transform="translate(74.68 388.84) rotate(-90) scale(0.22 -0.22)">
      <defs>
       <path id="DejaVuSerif-Bold-44" d="M 2100 378 
L 2534 378 
Q 3266 378 3605 847 
Q 3944 1316 3944 2338 
Q 3944 3353 3606 3820 
Q 3269 4288 2534 4288 
L 2100 4288 
L 2100 378 
z
M 300 0 
L 300 378 
L 897 378 
L 897 4288 
L 300 4288 
L 300 4666 
L 2694 4666 
Q 3950 4666 4615 4066 
Q 5281 3466 5281 2338 
Q 5281 1203 4614 601 
Q 3947 0 2694 0 
L 300 0 
z
" transform="scale(0.015625)"/>
       <path id="Cmr10-6a" d="M 128 -1075 
Q 275 -1147 459 -1147 
Q 713 -1147 811 -889 
Q 909 -631 909 -331 
L 909 2175 
Q 909 2347 846 2423 
Q 784 2500 676 2517 
Q 569 2534 359 2534 
L 359 2759 
L 1356 2828 
L 1356 -359 
Q 1356 -606 1234 -826 
Q 1113 -1047 903 -1180 
Q 694 -1313 447 -1313 
Q 169 -1313 -56 -1175 
Q -281 -1038 -281 -788 
Q -281 -663 -190 -572 
Q -100 -481 25 -481 
Q 150 -481 240 -572 
Q 331 -663 331 -788 
Q 331 -884 276 -965 
Q 222 -1047 128 -1075 
z
M 653 3928 
Q 653 4069 759 4175 
Q 866 4281 1006 4281 
Q 1094 4281 1178 4234 
Q 1263 4188 1309 4103 
Q 1356 4019 1356 3928 
Q 1356 3791 1253 3684 
Q 1150 3578 1006 3578 
Q 866 3578 759 3684 
Q 653 3791 653 3928 
z
" transform="scale(0.015625)"/>
       <path id="DejaVuSerif-Bold-5b" d="M 800 4863 
L 2572 4863 
L 2572 4488 
L 1906 4488 
L 1906 -469 
L 2572 -469 
L 2572 -844 
L 800 -844 
L 800 4863 
z
" transform="scale(0.015625)"/>
       <path id="DejaVuSerif-Bold-4d" d="M 269 0 
L 269 378 
L 863 378 
L 863 4288 
L 269 4288 
L 269 4666 
L 2194 4666 
L 3525 1672 
L 4863 4666 
L 6784 4666 
L 6784 4288 
L 6188 4288 
L 6188 378 
L 6784 378 
L 6784 0 
L 4384 0 
L 4384 378 
L 4978 378 
L 4978 3938 
L 3531 684 
L 2741 684 
L 1300 3938 
L 1300 378 
L 1894 378 
L 1894 0 
L 269 0 
z
" transform="scale(0.015625)"/>
       <path id="DejaVuSerif-Bold-79" d="M 1997 -750 
Q 1847 -1116 1634 -1269 
Q 1422 -1422 1063 -1422 
Q 909 -1422 721 -1387 
Q 534 -1353 313 -1288 
L 313 -594 
L 666 -597 
Q 675 -838 779 -953 
Q 884 -1069 1094 -1069 
Q 1297 -1069 1422 -958 
Q 1547 -847 1672 -538 
L 1722 -422 
L 275 2944 
L -84 2944 
L -84 3322 
L 1831 3322 
L 1831 2944 
L 1434 2944 
L 2278 978 
L 3066 2944 
L 2625 2944 
L 2625 3322 
L 3872 3322 
L 3872 2944 
L 3469 2944 
L 1997 -750 
z
" transform="scale(0.015625)"/>
       <path id="DejaVuSerif-Bold-72" d="M 3438 3359 
L 3438 2369 
L 3084 2369 
Q 3066 2634 2941 2764 
Q 2816 2894 2578 2894 
Q 2216 2894 2006 2575 
Q 1797 2256 1797 1691 
L 1797 378 
L 2400 378 
L 2400 0 
L 219 0 
L 219 378 
L 691 378 
L 691 2944 
L 184 2944 
L 184 3322 
L 1797 3322 
L 1797 2731 
Q 1959 3078 2226 3245 
Q 2494 3413 2881 3413 
Q 2978 3413 3117 3398 
Q 3256 3384 3438 3359 
z
" transform="scale(0.015625)"/>
       <path id="DejaVuSerif-Bold-5d" d="M 2228 4863 
L 2228 -844 
L 453 -844 
L 453 -469 
L 1119 -469 
L 1119 4488 
L 453 4488 
L 453 4863 
L 2228 4863 
z
" transform="scale(0.015625)"/>
      </defs>
      <use xlink:href="#DejaVuSerif-Bold-44" transform="translate(0 0.7125)"/>
      <use xlink:href="#Cmr10-6a" transform="translate(87.627109 -14.859375) scale(0.7)"/>
      <use xlink:href="#Cmr10-6a" transform="translate(108.989414 -14.859375) scale(0.7)"/>
      <use xlink:href="#DejaVuSerif-Bold-5b" transform="translate(132.947031 0.7125)"/>
      <use xlink:href="#DejaVuSerif-Bold-4d" transform="translate(180.261484 0.7125)"/>
      <use xlink:href="#DejaVuSerif-Bold-79" transform="translate(290.954844 0.7125)"/>
      <use xlink:href="#DejaVuSerif-Bold-72" transform="translate(349.060313 0.7125)"/>
      <use xlink:href="#DejaVuSerif-Bold-2212" transform="translate(402.654219 37.046875) scale(0.7)"/>
      <use xlink:href="#DejaVuSerif-Bold-31" transform="translate(461.306562 37.046875) scale(0.7)"/>
      <use xlink:href="#DejaVuSerif-Bold-5d" transform="translate(512.60793 0.7125)"/>
     </g>
    </g>
   </g>
   <g id="line2d_92">
    <path d="M 193.926067 649 
L 193.927771 593.744871 
L 215.396813 579.466505 
L 234.18263 566.971434 
L 250.285124 556.590395 
L 287.859298 532.624261 
L 414.035329 452.577617 
L 473.135732 415.286536 
L 491.950403 403.584702 
L 537.67389 375.463456 
L 561.904459 361.0503 
L 588.85453 345.348492 
L 626.650691 323.882059 
L 648.295423 312.007538 
L 675.416583 297.499884 
L 699.906527 284.787949 
L 710.821797 279.196035 
L 721.75958 273.453345 
L 732.722841 267.9365 
L 768.57416 250.344027 
L 779.69056 245.096968 
L 782.477265 214.656562 
L 785.267224 195.902864 
L 788.060552 186.491293 
L 790.857369 181.005051 
L 793.657798 177.673029 
L 796.46197 175.681928 
L 799.27002 174.596056 
L 802.082088 174.129864 
L 804.898323 174.102648 
L 807.718877 174.341396 
L 810.543913 174.848511 
L 816.208112 175.663708 
L 819.047635 176.437181 
L 821.892363 177.434966 
L 824.742499 173.284931 
L 827.598256 172.15664 
L 830.459857 173.894465 
L 833.327539 176.020809 
L 836.201547 175.84151 
L 839.082143 178.737244 
L 841.969601 180.23604 
L 844.86421 181.972403 
L 847.766275 183.132267 
L 850.676119 183.899077 
L 853.594082 184.335786 
L 856.520525 184.478142 
L 859.455831 184.339082 
L 862.400406 183.766334 
L 865.354679 182.933407 
L 868.319109 182.765349 
L 871.294184 181.309118 
L 874.280425 182.531019 
L 877.278386 181.587054 
L 880.288661 180.843862 
L 883.311888 180.258293 
L 886.34875 181.070665 
L 889.39998 185.967422 
L 895.548772 185.639858 
L 901.765391 185.687104 
L 904.901697 185.859774 
L 908.058216 186.264213 
L 911.236244 186.801394 
L 917.662655 187.546613 
L 920.914325 188.084568 
L 927.50418 189.48968 
L 930.846866 190.344495 
L 934.224851 191.34595 
L 937.641147 192.487207 
L 941.099174 193.780501 
L 944.602844 195.249948 
L 948.156661 196.924304 
L 951.765852 198.822547 
L 955.436546 200.962418 
L 959.175997 203.390195 
L 962.992896 206.138546 
L 966.897804 209.265521 
L 970.90376 212.836005 
L 975.027172 216.936624 
L 979.289168 221.684185 
L 983.717738 227.243687 
L 988.351298 233.848991 
L 993.24507 241.8606 
L 998.483545 251.871089 
L 1004.208144 264.969034 
L 1010.691556 283.5104 
L 1018.619265 314.53676 
L 1032.366166 430.330073 
L 1032.366166 430.330073 
" clip-path="url(#pe8e90f6001)" style="fill: none; stroke: #000000; stroke-width: 1.5; stroke-linecap: square"/>
   </g>
   <g id="line2d_93">
    <path d="M -1 302.404675 
L 226.131514 302.295098 
L 290.543277 302.047753 
L 338.858302 301.640469 
L 381.812545 301.053803 
L 432.835814 300.113401 
L 510.771747 298.656959 
L 548.440557 298.193189 
L 583.461836 297.982841 
L 618.543636 298.005844 
L 651.00399 298.249827 
L 680.851369 298.685358 
L 708.090976 299.291538 
L 732.722841 300.049658 
L 754.739911 300.935627 
L 774.126482 301.911497 
L 790.857369 302.945154 
L 807.718877 304.222246 
L 821.892363 305.504016 
L 836.201547 307.02666 
L 847.766275 308.458253 
L 859.455831 310.120432 
L 871.294184 312.062425 
L 880.288661 313.741437 
L 889.39998 315.650384 
L 898.648113 317.834908 
L 908.058216 320.355256 
L 914.437202 322.260613 
L 920.914325 324.381175 
L 927.50418 326.755913 
L 934.224851 329.434843 
L 941.099174 332.483858 
L 948.156661 335.992079 
L 951.765852 337.955496 
L 955.436546 340.08431 
L 959.175997 342.403266 
L 962.992896 344.943027 
L 966.897804 347.742229 
L 970.90376 350.850491 
L 975.027172 354.333043 
L 979.289168 358.27803 
L 983.717738 362.808694 
L 988.351298 368.104895 
L 993.24507 374.444173 
L 998.483545 382.288464 
L 1004.208144 392.495273 
L 1010.691556 406.957854 
L 1018.619265 431.497753 
L 1032.366166 533.530478 
L 1032.366166 533.530478 
" clip-path="url(#pe8e90f6001)" style="fill: none; stroke: #ff0000; stroke-width: 1.5; stroke-linecap: square"/>
   </g>
   <g id="line2d_94">
    <path d="M 83.903531 649 
L 83.903734 642.410311 
L 102.687943 629.341776 
L 110.738354 623.898715 
L 129.522741 611.443305 
L 142.940255 602.720932 
L 161.724932 590.821481 
L 177.826256 580.843778 
L 196.611377 569.381229 
L 210.02951 560.979365 
L 239.550087 542.248649 
L 279.807457 517.400738 
L 303.963436 502.588023 
L 314.699909 495.965432 
L 328.120991 487.848906 
L 338.858302 481.278521 
L 352.280571 473.1577 
L 363.018957 466.612601 
L 457.013276 410.354615 
L 462.387021 406.544671 
L 470.448394 399.752796 
L 475.823181 395.575257 
L 481.198427 391.83096 
L 486.574158 388.37879 
L 502.704554 379.166084 
L 513.461136 372.728557 
L 532.291895 362.059054 
L 534.982786 360.638099 
L 537.67389 357.569728 
L 540.365213 341.793065 
L 545.748539 305.496515 
L 548.440557 288.523801 
L 551.132819 272.835834 
L 553.825333 257.988218 
L 556.518106 245.71458 
L 559.211145 238.438968 
L 561.904459 233.922244 
L 564.598055 231.004625 
L 567.291941 229.139081 
L 569.986126 228.013673 
L 572.680617 227.430815 
L 575.375425 227.276108 
L 578.070558 227.448089 
L 580.766025 227.885761 
L 583.461836 228.532097 
L 586.158001 229.338335 
L 591.551434 231.292848 
L 602.343018 235.429 
L 605.041965 236.228558 
L 607.741357 237.273641 
L 613.141526 239.61554 
L 615.842332 240.514147 
L 618.543636 240.447663 
L 621.245454 237.263568 
L 623.9478 233.023392 
L 626.650691 232.694905 
L 629.354141 233.86416 
L 634.762789 237.455384 
L 637.46802 239.435394 
L 640.17388 240.455813 
L 642.880388 238.084401 
L 645.587562 240.218983 
L 648.295423 243.116486 
L 651.00399 243.184962 
L 653.713285 245.881558 
L 656.423329 247.614112 
L 659.134144 251.03785 
L 661.845755 254.148287 
L 664.558183 256.699628 
L 667.271455 258.725011 
L 669.985594 260.236455 
L 672.700628 261.26623 
L 675.416583 261.824502 
L 678.133487 261.926012 
L 680.851369 261.609238 
L 683.570257 260.912405 
L 686.290184 259.863104 
L 689.01118 258.511618 
L 691.733278 256.8663 
L 694.456512 254.941844 
L 697.180916 252.65461 
L 699.906527 250.759627 
L 702.633381 249.616367 
L 705.361518 247.49636 
L 708.090976 248.209155 
L 710.821797 246.88866 
L 713.554023 245.091213 
L 716.287699 243.474986 
L 719.022869 242.501967 
L 721.75958 244.446485 
L 724.497882 245.204891 
L 727.237824 244.180576 
L 729.979459 243.024011 
L 732.722841 242.035758 
L 735.468024 241.173014 
L 740.964032 239.299825 
L 743.714979 238.563973 
L 746.467972 238.033572 
L 749.223078 237.822106 
L 751.980367 238.148899 
L 754.739911 239.315194 
L 760.266063 244.798787 
L 763.03283 246.02566 
L 765.802166 246.34154 
L 768.57416 246.202316 
L 774.126482 245.408689 
L 785.267224 243.640896 
L 793.657798 242.515292 
L 799.27002 241.951876 
L 821.892363 240.239969 
L 830.459857 239.573933 
L 841.969601 238.993014 
L 850.676119 238.726155 
L 859.455831 238.683768 
L 868.319109 238.878476 
L 877.278386 239.356832 
L 883.311888 239.851168 
L 889.39998 240.511475 
L 895.548772 241.350326 
L 901.765391 242.393044 
L 908.058216 243.668983 
L 914.437202 245.222801 
L 920.914325 247.083521 
L 927.50418 249.30807 
L 934.224851 251.963324 
L 937.641147 253.477444 
L 941.099174 255.135288 
L 944.602844 256.953403 
L 948.156661 258.949675 
L 951.765852 261.144546 
L 955.436546 263.566839 
L 959.175997 266.259911 
L 962.992896 269.246858 
L 966.897804 272.585375 
L 970.90376 276.338172 
L 975.027172 280.588189 
L 979.289168 285.445166 
L 983.717738 291.06209 
L 988.351298 297.655288 
L 993.24507 305.552795 
L 998.483545 315.293106 
L 1004.208144 327.853191 
L 1010.691556 345.259463 
L 1018.619265 373.066771 
L 1032.366166 475.667498 
L 1032.366166 475.667498 
" clip-path="url(#pe8e90f6001)" style="fill: none; stroke-dasharray: 5.55,2.4; stroke-dashoffset: 0; stroke: #808080; stroke-width: 1.5"/>
   </g>
   <g id="line2d_95">
    <path d="M -1 322.611399 
L 228.81521 322.497852 
L 293.227273 322.245306 
L 341.542697 321.832364 
L 384.497508 321.241662 
L 435.521875 320.302913 
L 510.771747 318.909108 
L 548.440557 318.444676 
L 583.461836 318.230947 
L 618.543636 318.248174 
L 651.00399 318.484775 
L 680.851369 318.911767 
L 708.090976 319.508634 
L 732.722841 320.257041 
L 754.739911 321.133285 
L 774.126482 322.099838 
L 790.857369 323.124818 
L 807.718877 324.392429 
L 821.892363 325.665764 
L 836.201547 327.179508 
L 847.766275 328.603628 
L 859.455831 330.258021 
L 871.294184 332.191921 
L 880.288661 333.864662 
L 889.39998 335.767164 
L 898.648113 337.945076 
L 908.058216 340.458642 
L 914.437202 342.359385 
L 920.914325 344.47526 
L 927.50418 346.84524 
L 934.224851 349.519339 
L 941.099174 352.563454 
L 948.156661 356.066705 
L 951.765852 358.027611 
L 955.436546 360.153898 
L 959.175997 362.47031 
L 962.992896 365.00751 
L 966.897804 367.804135 
L 970.90376 370.909804 
L 975.027172 374.389746 
L 979.289168 378.332108 
L 983.717738 382.860131 
L 988.351298 388.153675 
L 993.24507 394.490283 
L 998.483545 402.331887 
L 1004.208144 412.535994 
L 1010.691556 426.995859 
L 1018.619265 451.533028 
L 1032.366166 553.563007 
L 1032.366166 553.563007 
" clip-path="url(#pe8e90f6001)" style="fill: none; stroke-dasharray: 5.55,2.4; stroke-dashoffset: 0; stroke: #ff00ff; stroke-width: 1.5"/>
   </g>
   <g id="line2d_96">
    <path d="M 710.135562 165.312663 
L 710.13559 138.956685 
L 710.135618 123.539427 
" clip-path="url(#pe8e90f6001)" style="fill: none; stroke: #0000ff; stroke-width: 1.5; stroke-linecap: square"/>
   </g>
   <g id="text_14">
    <g id="patch_3">
     <path d="M 363.24 290.936011 
L 565.863438 290.936011 
L 565.863438 261.724136 
L 363.24 261.724136 
z
" style="fill: #ffffff; opacity: 0.1; stroke: #ffffff; stroke-linejoin: miter"/>
    </g>
    <!-- NRR, a=0.01 pc -->
    <g style="fill: #ff0000" transform="translate(367.2 282.400699) scale(0.22 -0.22)">
     <defs>
      <path id="DejaVuSerif-Bold-4e" d="M 281 0 
L 281 378 
L 878 378 
L 878 4288 
L 281 4288 
L 281 4666 
L 1741 4666 
L 4556 1363 
L 4556 4288 
L 3963 4288 
L 3963 4666 
L 5594 4666 
L 5594 4288 
L 4997 4288 
L 4997 0 
L 4178 0 
L 1319 3372 
L 1319 378 
L 1913 378 
L 1913 0 
L 281 0 
z
" transform="scale(0.015625)"/>
      <path id="DejaVuSerif-Bold-52" d="M 3397 2278 
Q 3675 2238 3865 2094 
Q 4056 1950 4197 1678 
L 4878 378 
L 5356 378 
L 5356 0 
L 3822 0 
L 3078 1409 
Q 2863 1847 2711 1967 
Q 2559 2088 2291 2088 
L 2100 2088 
L 2100 378 
L 2700 378 
L 2700 0 
L 300 0 
L 300 378 
L 897 378 
L 897 4288 
L 300 4288 
L 300 4666 
L 2963 4666 
Q 3775 4666 4217 4339 
Q 4659 4013 4659 3413 
Q 4659 2925 4345 2642 
Q 4031 2359 3397 2278 
z
M 2100 2463 
L 2509 2463 
Q 2947 2463 3183 2700 
Q 3419 2938 3419 3378 
Q 3419 3819 3183 4053 
Q 2947 4288 2509 4288 
L 2100 4288 
L 2100 2463 
z
" transform="scale(0.015625)"/>
      <path id="DejaVuSerif-Bold-2c" d="M 84 -616 
Q 409 -353 562 -28 
Q 716 297 716 728 
L 716 997 
L 1606 997 
L 1606 972 
Q 1606 281 1317 -217 
Q 1028 -716 428 -1056 
L 84 -616 
z
" transform="scale(0.015625)"/>
      <path id="DejaVuSerif-Bold-20" transform="scale(0.015625)"/>
      <path id="DejaVuSerif-Bold-61" d="M 3525 2041 
L 3525 378 
L 4000 378 
L 4000 0 
L 2419 0 
L 2419 422 
Q 2200 159 1931 34 
Q 1663 -91 1319 -91 
Q 809 -91 536 182 
Q 263 456 263 966 
Q 263 1525 655 1803 
Q 1047 2081 1838 2081 
L 2419 2081 
L 2419 2278 
Q 2419 2681 2228 2873 
Q 2038 3066 1638 3066 
Q 1306 3066 1126 2930 
Q 947 2794 872 2484 
L 519 2484 
L 519 3200 
Q 816 3306 1134 3359 
Q 1453 3413 1806 3413 
Q 2697 3413 3111 3081 
Q 3525 2750 3525 2041 
z
M 2419 1044 
L 2419 1709 
L 2003 1709 
Q 1694 1709 1528 1540 
Q 1363 1372 1363 1056 
Q 1363 741 1483 584 
Q 1603 428 1850 428 
Q 2106 428 2262 597 
Q 2419 766 2419 1044 
z
" transform="scale(0.015625)"/>
      <path id="DejaVuSerif-Bold-3d" d="M 678 1650 
L 4684 1650 
L 4684 941 
L 678 941 
L 678 1650 
z
M 678 3072 
L 4684 3072 
L 4684 2363 
L 678 2363 
L 678 3072 
z
" transform="scale(0.015625)"/>
      <path id="DejaVuSerif-Bold-2e" d="M 519 506 
Q 519 750 694 925 
Q 869 1100 1113 1100 
Q 1359 1100 1534 925 
Q 1709 750 1709 506 
Q 1709 259 1534 84 
Q 1359 -91 1113 -91 
Q 869 -91 694 84 
Q 519 259 519 506 
z
" transform="scale(0.015625)"/>
      <path id="DejaVuSerif-Bold-70" d="M 1728 1825 
L 1728 1497 
Q 1728 916 1876 656 
Q 2025 397 2356 397 
Q 2697 397 2836 672 
Q 2975 947 2975 1663 
Q 2975 2378 2836 2651 
Q 2697 2925 2356 2925 
Q 2025 2925 1876 2665 
Q 1728 2406 1728 1825 
z
M 622 2944 
L 147 2944 
L 147 3322 
L 1728 3322 
L 1728 2900 
Q 1869 3159 2106 3286 
Q 2344 3413 2694 3413 
Q 3403 3413 3811 2945 
Q 4219 2478 4219 1663 
Q 4219 847 3811 378 
Q 3403 -91 2694 -91 
Q 2344 -91 2106 36 
Q 1869 163 1728 422 
L 1728 -953 
L 2241 -953 
L 2241 -1331 
L 147 -1331 
L 147 -953 
L 622 -953 
L 622 2944 
z
" transform="scale(0.015625)"/>
      <path id="DejaVuSerif-Bold-63" d="M 3609 1038 
Q 3491 469 3123 189 
Q 2756 -91 2125 -91 
Q 1238 -91 750 368 
Q 263 828 263 1663 
Q 263 2488 744 2950 
Q 1225 3413 2081 3413 
Q 2428 3413 2781 3347 
Q 3134 3281 3500 3150 
L 3500 2228 
L 3150 2228 
Q 3100 2650 2903 2854 
Q 2706 3059 2350 3059 
Q 1888 3059 1692 2746 
Q 1497 2434 1497 1663 
Q 1497 909 1687 586 
Q 1878 263 2309 263 
Q 2644 263 2845 463 
Q 3047 663 3091 1038 
L 3609 1038 
z
" transform="scale(0.015625)"/>
     </defs>
     <use xlink:href="#DejaVuSerif-Bold-4e"/>
     <use xlink:href="#DejaVuSerif-Bold-52" x="91.40625"/>
     <use xlink:href="#DejaVuSerif-Bold-52" x="174.511719"/>
     <use xlink:href="#DejaVuSerif-Bold-2c" x="257.617188"/>
     <use xlink:href="#DejaVuSerif-Bold-20" x="292.431641"/>
     <use xlink:href="#DejaVuSerif-Bold-61" x="327.246094"/>
     <use xlink:href="#DejaVuSerif-Bold-3d" x="392.041016"/>
     <use xlink:href="#DejaVuSerif-Bold-30" x="475.830078"/>
     <use xlink:href="#DejaVuSerif-Bold-2e" x="545.410156"/>
     <use xlink:href="#DejaVuSerif-Bold-30" x="580.224609"/>
     <use xlink:href="#DejaVuSerif-Bold-31" x="649.804688"/>
     <use xlink:href="#DejaVuSerif-Bold-20" x="719.384766"/>
     <use xlink:href="#DejaVuSerif-Bold-70" x="754.199219"/>
     <use xlink:href="#DejaVuSerif-Bold-63" x="824.121094"/>
    </g>
   </g>
   <g id="text_15">
    <g id="patch_4">
     <path d="M 809.64 177.221378 
L 992.154062 177.221378 
L 992.154062 123.374316 
L 809.64 123.374316 
z
" style="fill: #ffffff; opacity: 0.1; stroke: #ffffff; stroke-linejoin: miter"/>
    </g>
    <!-- RR, a=0.01 pc -->
    <g transform="translate(813.6 144.050878) scale(0.22 -0.22)">
     <use xlink:href="#DejaVuSerif-Bold-52"/>
     <use xlink:href="#DejaVuSerif-Bold-52" x="83.105469"/>
     <use xlink:href="#DejaVuSerif-Bold-2c" x="166.210938"/>
     <use xlink:href="#DejaVuSerif-Bold-20" x="201.025391"/>
     <use xlink:href="#DejaVuSerif-Bold-61" x="235.839844"/>
     <use xlink:href="#DejaVuSerif-Bold-3d" x="300.634766"/>
     <use xlink:href="#DejaVuSerif-Bold-30" x="384.423828"/>
     <use xlink:href="#DejaVuSerif-Bold-2e" x="454.003906"/>
     <use xlink:href="#DejaVuSerif-Bold-30" x="488.818359"/>
     <use xlink:href="#DejaVuSerif-Bold-31" x="558.398438"/>
     <use xlink:href="#DejaVuSerif-Bold-20" x="627.978516"/>
     <use xlink:href="#DejaVuSerif-Bold-70" x="662.792969"/>
     <use xlink:href="#DejaVuSerif-Bold-63" x="732.714844"/>
    </g>
    <!--       (0.25'') -->
    <g transform="translate(813.6 168.686066) scale(0.22 -0.22)">
     <defs>
      <path id="DejaVuSerif-Bold-28" d="M 2694 -997 
Q 1641 -606 1122 122 
Q 603 850 603 1931 
Q 603 3013 1115 3731 
Q 1628 4450 2694 4863 
L 2694 4488 
Q 2200 4188 1983 3598 
Q 1766 3009 1766 1931 
Q 1766 856 1983 267 
Q 2200 -322 2694 -622 
L 2694 -997 
z
" transform="scale(0.015625)"/>
      <path id="DejaVuSerif-Bold-27" d="M 1350 4666 
L 1350 2931 
L 609 2931 
L 609 4666 
L 1350 4666 
z
" transform="scale(0.015625)"/>
      <path id="DejaVuSerif-Bold-29" d="M 325 -997 
L 325 -622 
Q 819 -322 1036 267 
Q 1253 856 1253 1931 
Q 1253 3009 1036 3598 
Q 819 4188 325 4488 
L 325 4863 
Q 1391 4450 1905 3731 
Q 2419 3013 2419 1931 
Q 2419 850 1898 122 
Q 1378 -606 325 -997 
z
" transform="scale(0.015625)"/>
     </defs>
     <use xlink:href="#DejaVuSerif-Bold-20"/>
     <use xlink:href="#DejaVuSerif-Bold-20" x="34.814453"/>
     <use xlink:href="#DejaVuSerif-Bold-20" x="69.628906"/>
     <use xlink:href="#DejaVuSerif-Bold-20" x="104.443359"/>
     <use xlink:href="#DejaVuSerif-Bold-20" x="139.257812"/>
     <use xlink:href="#DejaVuSerif-Bold-20" x="174.072266"/>
     <use xlink:href="#DejaVuSerif-Bold-28" x="208.886719"/>
     <use xlink:href="#DejaVuSerif-Bold-30" x="256.201172"/>
     <use xlink:href="#DejaVuSerif-Bold-2e" x="325.78125"/>
     <use xlink:href="#DejaVuSerif-Bold-32" x="360.595703"/>
     <use xlink:href="#DejaVuSerif-Bold-35" x="430.175781"/>
     <use xlink:href="#DejaVuSerif-Bold-27" x="499.755859"/>
     <use xlink:href="#DejaVuSerif-Bold-27" x="530.371094"/>
     <use xlink:href="#DejaVuSerif-Bold-29" x="560.986328"/>
    </g>
   </g>
   <g id="text_16">
    <g id="patch_5">
     <path d="M 363.24 326.132438 
L 565.863438 326.132438 
L 565.863438 296.920563 
L 363.24 296.920563 
z
" style="fill: #ffffff; opacity: 0.1; stroke: #ffffff; stroke-linejoin: miter"/>
    </g>
    <!-- NRR, a=0.03 pc -->
    <g style="fill: #ff00ff" transform="translate(367.2 317.597125) scale(0.22 -0.22)">
     <use xlink:href="#DejaVuSerif-Bold-4e"/>
     <use xlink:href="#DejaVuSerif-Bold-52" x="91.40625"/>
     <use xlink:href="#DejaVuSerif-Bold-52" x="174.511719"/>
     <use xlink:href="#DejaVuSerif-Bold-2c" x="257.617188"/>
     <use xlink:href="#DejaVuSerif-Bold-20" x="292.431641"/>
     <use xlink:href="#DejaVuSerif-Bold-61" x="327.246094"/>
     <use xlink:href="#DejaVuSerif-Bold-3d" x="392.041016"/>
     <use xlink:href="#DejaVuSerif-Bold-30" x="475.830078"/>
     <use xlink:href="#DejaVuSerif-Bold-2e" x="545.410156"/>
     <use xlink:href="#DejaVuSerif-Bold-30" x="580.224609"/>
     <use xlink:href="#DejaVuSerif-Bold-33" x="649.804688"/>
     <use xlink:href="#DejaVuSerif-Bold-20" x="719.384766"/>
     <use xlink:href="#DejaVuSerif-Bold-70" x="754.199219"/>
     <use xlink:href="#DejaVuSerif-Bold-63" x="824.121094"/>
    </g>
   </g>
   <g id="text_17">
    <g id="patch_6">
     <path d="M 564.809685 233.148288 
L 747.323748 233.148288 
L 747.323748 203.936413 
L 564.809685 203.936413 
z
" style="fill: #ffffff; opacity: 0.1; stroke: #ffffff; stroke-linejoin: miter"/>
    </g>
    <!-- RR, a=0.03 pc -->
    <g style="fill: #808080" transform="translate(568.769685 224.612975) scale(0.22 -0.22)">
     <use xlink:href="#DejaVuSerif-Bold-52"/>
     <use xlink:href="#DejaVuSerif-Bold-52" x="83.105469"/>
     <use xlink:href="#DejaVuSerif-Bold-2c" x="166.210938"/>
     <use xlink:href="#DejaVuSerif-Bold-20" x="201.025391"/>
     <use xlink:href="#DejaVuSerif-Bold-61" x="235.839844"/>
     <use xlink:href="#DejaVuSerif-Bold-3d" x="300.634766"/>
     <use xlink:href="#DejaVuSerif-Bold-30" x="384.423828"/>
     <use xlink:href="#DejaVuSerif-Bold-2e" x="454.003906"/>
     <use xlink:href="#DejaVuSerif-Bold-30" x="488.818359"/>
     <use xlink:href="#DejaVuSerif-Bold-33" x="558.398438"/>
     <use xlink:href="#DejaVuSerif-Bold-20" x="627.978516"/>
     <use xlink:href="#DejaVuSerif-Bold-70" x="662.792969"/>
     <use xlink:href="#DejaVuSerif-Bold-63" x="732.714844"/>
    </g>
   </g>
   <g id="patch_7">
    <path d="M 144 576.72 
L 144 77.76 
" style="fill: none; stroke: #000000; stroke-width: 0.8; stroke-linejoin: miter; stroke-linecap: square"/>
   </g>
   <g id="patch_8">
    <path d="M 1036.8 576.72 
L 1036.8 77.76 
" style="fill: none; stroke: #000000; stroke-width: 0.8; stroke-linejoin: miter; stroke-linecap: square"/>
   </g>
   <g id="patch_9">
    <path d="M 144 576.72 
L 1036.8 576.72 
" style="fill: none; stroke: #000000; stroke-width: 0.8; stroke-linejoin: miter; stroke-linecap: square"/>
   </g>
   <g id="patch_10">
    <path d="M 144 77.76 
L 1036.8 77.76 
" style="fill: none; stroke: #000000; stroke-width: 0.8; stroke-linejoin: miter; stroke-linecap: square"/>
   </g>
   <g id="patch_11">
    <path d="M 592.741528 148.416644 
Q 686.613055 164.573298 780.484582 180.729951 
L 781.163064 176.787914 
Q 786.566375 180.762013 791.969685 184.736112 
Q 785.548652 186.675069 779.127618 188.614027 
L 779.8061 184.671989 
Q 685.934573 168.515336 592.063046 152.358682 
L 592.741528 148.416644 
z
" style="stroke: #000000; stroke-linecap: round"/>
   </g>
   <g id="text_18">
    <!-- Sch. Barrier -->
    <g transform="translate(439.827187 120.83254) scale(0.22 -0.22)">
     <defs>
      <path id="DejaVuSerif-Bold-53" d="M 494 225 
L 494 1331 
L 891 1331 
Q 981 806 1318 547 
Q 1656 288 2253 288 
Q 2738 288 2991 472 
Q 3244 656 3244 1013 
Q 3244 1294 3072 1450 
Q 2900 1606 2363 1741 
L 1663 1913 
Q 978 2088 700 2398 
Q 422 2709 422 3284 
Q 422 3978 883 4364 
Q 1344 4750 2175 4750 
Q 2584 4750 3026 4681 
Q 3469 4613 3944 4475 
L 3944 3444 
L 3547 3444 
Q 3456 3925 3150 4148 
Q 2844 4372 2278 4372 
Q 1816 4372 1580 4211 
Q 1344 4050 1344 3731 
Q 1344 3441 1506 3289 
Q 1669 3138 2303 2975 
L 3003 2803 
Q 3653 2641 3945 2297 
Q 4238 1953 4238 1350 
Q 4238 644 3750 276 
Q 3263 -91 2316 -91 
Q 1859 -91 1409 -12 
Q 959 66 494 225 
z
" transform="scale(0.015625)"/>
      <path id="DejaVuSerif-Bold-68" d="M 219 0 
L 219 378 
L 691 378 
L 691 4488 
L 197 4488 
L 197 4863 
L 1797 4863 
L 1797 2853 
Q 1997 3150 2253 3281 
Q 2509 3413 2900 3413 
Q 3459 3413 3745 3083 
Q 4031 2753 4031 2113 
L 4031 378 
L 4506 378 
L 4506 0 
L 2522 0 
L 2522 378 
L 2925 378 
L 2925 2144 
Q 2925 2566 2817 2730 
Q 2709 2894 2444 2894 
Q 2109 2894 1953 2648 
Q 1797 2403 1797 1869 
L 1797 378 
L 2203 378 
L 2203 0 
L 219 0 
z
" transform="scale(0.015625)"/>
      <path id="DejaVuSerif-Bold-42" d="M 300 0 
L 300 378 
L 897 378 
L 897 4288 
L 300 4288 
L 300 4666 
L 3066 4666 
Q 3919 4666 4347 4378 
Q 4775 4091 4775 3513 
Q 4775 3097 4479 2853 
Q 4184 2609 3603 2547 
Q 4306 2481 4681 2172 
Q 5056 1863 5056 1350 
Q 5056 656 4532 328 
Q 4009 0 2894 0 
L 300 0 
z
M 2100 2719 
L 2509 2719 
Q 3047 2719 3306 2914 
Q 3566 3109 3566 3513 
Q 3566 3919 3314 4103 
Q 3063 4288 2509 4288 
L 2100 4288 
L 2100 2719 
z
M 2100 378 
L 2547 378 
Q 3144 378 3431 615 
Q 3719 853 3719 1350 
Q 3719 1850 3428 2097 
Q 3138 2344 2547 2344 
L 2100 2344 
L 2100 378 
z
" transform="scale(0.015625)"/>
      <path id="DejaVuSerif-Bold-69" d="M 588 4263 
Q 588 4516 763 4689 
Q 938 4863 1191 4863 
Q 1438 4863 1611 4689 
Q 1784 4516 1784 4263 
Q 1784 4016 1611 3842 
Q 1438 3669 1191 3669 
Q 938 3669 763 3841 
Q 588 4013 588 4263 
z
M 1797 378 
L 2272 378 
L 2272 0 
L 219 0 
L 219 378 
L 691 378 
L 691 2944 
L 219 2944 
L 219 3322 
L 1797 3322 
L 1797 378 
z
" transform="scale(0.015625)"/>
     </defs>
     <use xlink:href="#DejaVuSerif-Bold-53"/>
     <use xlink:href="#DejaVuSerif-Bold-63" x="72.216797"/>
     <use xlink:href="#DejaVuSerif-Bold-68" x="133.105469"/>
     <use xlink:href="#DejaVuSerif-Bold-2e" x="205.810547"/>
     <use xlink:href="#DejaVuSerif-Bold-20" x="240.625"/>
     <use xlink:href="#DejaVuSerif-Bold-42" x="275.439453"/>
     <use xlink:href="#DejaVuSerif-Bold-61" x="359.960938"/>
     <use xlink:href="#DejaVuSerif-Bold-72" x="424.755859"/>
     <use xlink:href="#DejaVuSerif-Bold-72" x="477.441406"/>
     <use xlink:href="#DejaVuSerif-Bold-69" x="530.126953"/>
     <use xlink:href="#DejaVuSerif-Bold-65" x="568.115234"/>
     <use xlink:href="#DejaVuSerif-Bold-72" x="631.738281"/>
    </g>
    <!-- (Merritt+2011) -->
    <g transform="translate(399.708125 145.467728) scale(0.22 -0.22)">
     <defs>
      <path id="DejaVuSerif-Bold-74" d="M 634 2944 
L 153 2944 
L 153 3322 
L 634 3322 
L 634 4353 
L 1741 4353 
L 1741 3322 
L 2663 3322 
L 2663 2944 
L 1741 2944 
L 1741 909 
Q 1741 475 1809 369 
Q 1878 263 2059 263 
Q 2259 263 2356 397 
Q 2453 531 2459 813 
L 2925 813 
Q 2897 313 2651 111 
Q 2406 -91 1806 -91 
Q 1122 -91 878 123 
Q 634 338 634 909 
L 634 2944 
z
" transform="scale(0.015625)"/>
      <path id="DejaVuSerif-Bold-2b" d="M 3041 4013 
L 3041 2369 
L 4684 2369 
L 4684 1650 
L 3041 1650 
L 3041 6 
L 2322 6 
L 2322 1650 
L 678 1650 
L 678 2369 
L 2322 2369 
L 2322 4013 
L 3041 4013 
z
" transform="scale(0.015625)"/>
     </defs>
     <use xlink:href="#DejaVuSerif-Bold-28"/>
     <use xlink:href="#DejaVuSerif-Bold-4d" x="47.314453"/>
     <use xlink:href="#DejaVuSerif-Bold-65" x="158.007812"/>
     <use xlink:href="#DejaVuSerif-Bold-72" x="221.630859"/>
     <use xlink:href="#DejaVuSerif-Bold-72" x="274.316406"/>
     <use xlink:href="#DejaVuSerif-Bold-69" x="327.001953"/>
     <use xlink:href="#DejaVuSerif-Bold-74" x="364.990234"/>
     <use xlink:href="#DejaVuSerif-Bold-74" x="411.181641"/>
     <use xlink:href="#DejaVuSerif-Bold-2b" x="457.373047"/>
     <use xlink:href="#DejaVuSerif-Bold-32" x="541.162109"/>
     <use xlink:href="#DejaVuSerif-Bold-30" x="610.742188"/>
     <use xlink:href="#DejaVuSerif-Bold-31" x="680.322266"/>
     <use xlink:href="#DejaVuSerif-Bold-31" x="749.902344"/>
     <use xlink:href="#DejaVuSerif-Bold-29" x="819.482422"/>
    </g>
   </g>
   <g id="text_19">
    <!-- $e=$0.97 -->
    <g style="fill: #0000ff" transform="translate(688.505247 123.539427) scale(0.22 -0.22)">
     <defs>
      <path id="DejaVuSerif-Bold-39" d="M 2181 4384 
Q 1859 4384 1723 4111 
Q 1588 3838 1588 3163 
Q 1588 2488 1723 2214 
Q 1859 1941 2181 1941 
Q 2503 1941 2640 2214 
Q 2778 2488 2778 3163 
Q 2778 3838 2640 4111 
Q 2503 4384 2181 4384 
z
M 2878 1900 
Q 2672 1734 2420 1651 
Q 2169 1569 1875 1569 
Q 1163 1569 755 1986 
Q 347 2403 347 3138 
Q 347 3913 803 4331 
Q 1259 4750 2106 4750 
Q 3063 4750 3556 4172 
Q 4050 3594 4050 2478 
Q 4050 1206 3503 557 
Q 2956 -91 1881 -91 
Q 1600 -91 1278 -44 
Q 956 3 588 97 
L 588 922 
L 966 922 
Q 1044 603 1261 439 
Q 1478 275 1825 275 
Q 2375 275 2625 658 
Q 2875 1041 2878 1900 
z
" transform="scale(0.015625)"/>
      <path id="DejaVuSerif-Bold-37" d="M 3922 3872 
L 1997 0 
L 1363 0 
L 3238 3781 
L 934 3781 
L 934 3150 
L 506 3150 
L 506 4666 
L 3922 4666 
L 3922 3872 
z
" transform="scale(0.015625)"/>
     </defs>
     <use xlink:href="#DejaVuSerif-Bold-65" transform="translate(0 0.78125)"/>
     <use xlink:href="#DejaVuSerif-Bold-3d" transform="translate(81.181641 0.78125)"/>
     <use xlink:href="#DejaVuSerif-Bold-30" transform="translate(182.529297 0.78125)"/>
     <use xlink:href="#DejaVuSerif-Bold-2e" transform="translate(252.109375 0.78125)"/>
     <use xlink:href="#DejaVuSerif-Bold-39" transform="translate(286.923828 0.78125)"/>
     <use xlink:href="#DejaVuSerif-Bold-37" transform="translate(356.503906 0.78125)"/>
    </g>
   </g>
   <g id="text_20">
    <!-- Bar-Or&amp;Fouvry 2018 formalism -->
    <g transform="translate(396.093594 71.76) scale(0.22 -0.22)">
     <defs>
      <path id="DejaVuSerif-Bold-2d" d="M 347 2138 
L 2309 2138 
L 2309 1294 
L 347 1294 
L 347 2138 
z
" transform="scale(0.015625)"/>
      <path id="DejaVuSerif-Bold-4f" d="M 2784 288 
Q 3381 288 3672 791 
Q 3963 1294 3963 2328 
Q 3963 3366 3672 3869 
Q 3381 4372 2784 4372 
Q 2191 4372 1898 3864 
Q 1606 3356 1606 2328 
Q 1606 1303 1898 795 
Q 2191 288 2784 288 
z
M 2784 -91 
Q 1606 -91 937 553 
Q 269 1197 269 2328 
Q 269 3459 939 4104 
Q 1609 4750 2784 4750 
Q 3963 4750 4631 4106 
Q 5300 3463 5300 2328 
Q 5300 1197 4629 553 
Q 3959 -91 2784 -91 
z
" transform="scale(0.015625)"/>
      <path id="DejaVuSerif-Bold-26" d="M 5663 0 
L 4166 0 
L 3769 409 
Q 3456 159 3078 34 
Q 2700 -91 2253 -91 
Q 1316 -91 786 309 
Q 256 709 256 1409 
Q 256 1919 526 2280 
Q 797 2641 1375 2900 
Q 1216 3109 1136 3300 
Q 1056 3491 1056 3669 
Q 1056 4181 1486 4465 
Q 1916 4750 2694 4750 
Q 2925 4750 3233 4712 
Q 3541 4675 3928 4603 
L 3928 3628 
L 3525 3628 
Q 3469 4016 3287 4194 
Q 3106 4372 2772 4372 
Q 2456 4372 2275 4222 
Q 2094 4072 2094 3816 
Q 2094 3528 2653 2959 
Q 2716 2897 2747 2869 
L 4184 1363 
Q 4372 1575 4478 1853 
Q 4584 2131 4613 2484 
L 4044 2484 
L 4044 2859 
L 5606 2859 
L 5606 2484 
L 5056 2484 
Q 5003 2028 4861 1675 
Q 4719 1322 4488 1050 
L 5131 378 
L 5663 378 
L 5663 0 
z
M 3475 716 
L 1709 2553 
Q 1538 2344 1450 2108 
Q 1363 1872 1363 1613 
Q 1363 1084 1695 743 
Q 2028 403 2541 403 
Q 2784 403 3014 479 
Q 3244 556 3475 716 
z
" transform="scale(0.015625)"/>
      <path id="DejaVuSerif-Bold-46" d="M 300 0 
L 300 378 
L 897 378 
L 897 4288 
L 300 4288 
L 300 4666 
L 4459 4666 
L 4459 3566 
L 4031 3566 
L 4031 4238 
L 2106 4238 
L 2106 2741 
L 3291 2741 
L 3291 3334 
L 3719 3334 
L 3719 1722 
L 3291 1722 
L 3291 2316 
L 2106 2316 
L 2106 378 
L 2841 378 
L 2841 0 
L 300 0 
z
" transform="scale(0.015625)"/>
      <path id="DejaVuSerif-Bold-6f" d="M 2138 263 
Q 2488 263 2630 563 
Q 2772 863 2772 1663 
Q 2772 2463 2631 2761 
Q 2491 3059 2138 3059 
Q 1784 3059 1640 2757 
Q 1497 2456 1497 1663 
Q 1497 869 1640 566 
Q 1784 263 2138 263 
z
M 2138 -91 
Q 1259 -91 761 376 
Q 263 844 263 1663 
Q 263 2484 761 2948 
Q 1259 3413 2138 3413 
Q 3019 3413 3516 2948 
Q 4013 2484 4013 1663 
Q 4013 844 3514 376 
Q 3016 -91 2138 -91 
z
" transform="scale(0.015625)"/>
      <path id="DejaVuSerif-Bold-75" d="M 3963 3322 
L 3963 378 
L 4434 378 
L 4434 0 
L 2853 0 
L 2853 469 
Q 2656 172 2400 40 
Q 2144 -91 1753 -91 
Q 1194 -91 908 239 
Q 622 569 622 1209 
L 622 2944 
L 147 2944 
L 147 3322 
L 1728 3322 
L 1728 1381 
Q 1728 763 1831 595 
Q 1934 428 2209 428 
Q 2544 428 2698 675 
Q 2853 922 2853 1459 
L 2853 2944 
L 2450 2944 
L 2450 3322 
L 3963 3322 
z
" transform="scale(0.015625)"/>
      <path id="DejaVuSerif-Bold-76" d="M 1428 0 
L 250 2944 
L -116 2944 
L -116 3322 
L 1791 3322 
L 1791 2944 
L 1388 2944 
L 2228 844 
L 3066 2944 
L 2631 2944 
L 2631 3322 
L 3878 3322 
L 3878 2944 
L 3494 2944 
L 2316 0 
L 1428 0 
z
" transform="scale(0.015625)"/>
      <path id="DejaVuSerif-Bold-38" d="M 2975 2484 
Q 3531 2394 3820 2075 
Q 4109 1756 4109 1241 
Q 4109 597 3623 253 
Q 3138 -91 2222 -91 
Q 1306 -91 818 253 
Q 331 597 331 1241 
Q 331 1756 622 2075 
Q 913 2394 1466 2484 
Q 975 2597 731 2861 
Q 488 3125 488 3531 
Q 488 4125 931 4437 
Q 1375 4750 2222 4750 
Q 3066 4750 3511 4437 
Q 3956 4125 3956 3531 
Q 3956 3125 3711 2861 
Q 3466 2597 2975 2484 
z
M 2747 3519 
Q 2747 4013 2628 4198 
Q 2509 4384 2222 4384 
Q 1931 4384 1814 4198 
Q 1697 4013 1697 3519 
Q 1697 3028 1814 2845 
Q 1931 2663 2222 2663 
Q 2513 2663 2630 2845 
Q 2747 3028 2747 3519 
z
M 2869 1294 
Q 2869 1866 2723 2081 
Q 2578 2297 2222 2297 
Q 1863 2297 1719 2081 
Q 1575 1866 1575 1294 
Q 1575 716 1720 495 
Q 1866 275 2222 275 
Q 2575 275 2722 495 
Q 2869 716 2869 1294 
z
" transform="scale(0.015625)"/>
      <path id="DejaVuSerif-Bold-66" d="M 3097 4031 
L 2747 4031 
Q 2722 4275 2605 4394 
Q 2488 4513 2272 4513 
Q 2022 4513 1909 4333 
Q 1797 4153 1797 3750 
L 1797 3322 
L 2631 3322 
L 2631 2944 
L 1797 2944 
L 1797 378 
L 2438 378 
L 2438 0 
L 219 0 
L 219 378 
L 691 378 
L 691 2944 
L 197 2944 
L 197 3322 
L 691 3322 
L 691 3738 
Q 691 4291 1044 4577 
Q 1397 4863 2081 4863 
Q 2347 4863 2600 4833 
Q 2853 4803 3097 4744 
L 3097 4031 
z
" transform="scale(0.015625)"/>
      <path id="DejaVuSerif-Bold-6d" d="M 3884 2778 
Q 4116 3109 4384 3261 
Q 4653 3413 5013 3413 
Q 5584 3413 5867 3089 
Q 6150 2766 6150 2113 
L 6150 378 
L 6625 378 
L 6625 0 
L 4647 0 
L 4647 378 
L 5044 378 
L 5044 1947 
Q 5044 2569 4948 2731 
Q 4853 2894 4594 2894 
Q 4300 2894 4137 2667 
Q 3975 2441 3975 2022 
L 3975 378 
L 4372 378 
L 4372 0 
L 2472 0 
L 2472 378 
L 2869 378 
L 2869 1947 
Q 2869 2569 2772 2731 
Q 2675 2894 2419 2894 
Q 2122 2894 1959 2667 
Q 1797 2441 1797 2022 
L 1797 378 
L 2194 378 
L 2194 0 
L 219 0 
L 219 378 
L 691 378 
L 691 2944 
L 219 2944 
L 219 3322 
L 1797 3322 
L 1797 2853 
Q 1991 3144 2241 3278 
Q 2491 3413 2834 3413 
Q 3241 3413 3494 3258 
Q 3747 3103 3884 2778 
z
" transform="scale(0.015625)"/>
      <path id="DejaVuSerif-Bold-6c" d="M 1797 378 
L 2272 378 
L 2272 0 
L 219 0 
L 219 378 
L 691 378 
L 691 4488 
L 219 4488 
L 219 4863 
L 1797 4863 
L 1797 378 
z
" transform="scale(0.015625)"/>
      <path id="DejaVuSerif-Bold-73" d="M 300 97 
L 300 1025 
L 653 1025 
Q 697 653 931 458 
Q 1166 263 1569 263 
Q 1906 263 2086 380 
Q 2266 497 2266 716 
Q 2266 916 2152 1025 
Q 2038 1134 1709 1216 
L 1253 1331 
Q 738 1459 506 1698 
Q 275 1938 275 2344 
Q 275 2884 650 3148 
Q 1025 3413 1806 3413 
Q 2100 3413 2433 3364 
Q 2766 3316 3169 3213 
L 3169 2375 
L 2816 2375 
Q 2788 2716 2573 2887 
Q 2359 3059 1959 3059 
Q 1622 3059 1448 2951 
Q 1275 2844 1275 2638 
Q 1275 2469 1375 2372 
Q 1475 2275 1734 2209 
L 2188 2094 
Q 2841 1928 3091 1684 
Q 3341 1441 3341 1006 
Q 3341 444 2939 176 
Q 2538 -91 1691 -91 
Q 1381 -91 1034 -44 
Q 688 3 300 97 
z
" transform="scale(0.015625)"/>
     </defs>
     <use xlink:href="#DejaVuSerif-Bold-42"/>
     <use xlink:href="#DejaVuSerif-Bold-61" x="84.521484"/>
     <use xlink:href="#DejaVuSerif-Bold-72" x="149.316406"/>
     <use xlink:href="#DejaVuSerif-Bold-2d" x="202.001953"/>
     <use xlink:href="#DejaVuSerif-Bold-4f" x="243.505859"/>
     <use xlink:href="#DejaVuSerif-Bold-72" x="330.615234"/>
     <use xlink:href="#DejaVuSerif-Bold-26" x="383.300781"/>
     <use xlink:href="#DejaVuSerif-Bold-46" x="473.583984"/>
     <use xlink:href="#DejaVuSerif-Bold-6f" x="539.080078"/>
     <use xlink:href="#DejaVuSerif-Bold-75" x="605.779297"/>
     <use xlink:href="#DejaVuSerif-Bold-76" x="678.484375"/>
     <use xlink:href="#DejaVuSerif-Bold-72" x="736.589844"/>
     <use xlink:href="#DejaVuSerif-Bold-79" x="789.275391"/>
     <use xlink:href="#DejaVuSerif-Bold-20" x="847.380859"/>
     <use xlink:href="#DejaVuSerif-Bold-32" x="882.195312"/>
     <use xlink:href="#DejaVuSerif-Bold-30" x="951.775391"/>
     <use xlink:href="#DejaVuSerif-Bold-31" x="1021.355469"/>
     <use xlink:href="#DejaVuSerif-Bold-38" x="1090.935547"/>
     <use xlink:href="#DejaVuSerif-Bold-20" x="1160.515625"/>
     <use xlink:href="#DejaVuSerif-Bold-66" x="1195.330078"/>
     <use xlink:href="#DejaVuSerif-Bold-6f" x="1238.347656"/>
     <use xlink:href="#DejaVuSerif-Bold-72" x="1305.046875"/>
     <use xlink:href="#DejaVuSerif-Bold-6d" x="1357.732422"/>
     <use xlink:href="#DejaVuSerif-Bold-61" x="1463.542969"/>
     <use xlink:href="#DejaVuSerif-Bold-6c" x="1528.337891"/>
     <use xlink:href="#DejaVuSerif-Bold-69" x="1566.326172"/>
     <use xlink:href="#DejaVuSerif-Bold-73" x="1604.314453"/>
     <use xlink:href="#DejaVuSerif-Bold-6d" x="1660.613281"/>
    </g>
   </g>
  </g>
 </g>
 <defs>
  <clipPath id="pe8e90f6001">
   <rect x="144" y="77.76" width="892.8" height="498.96"/>
  </clipPath>
 </defs>
</svg>
