<?xml version="1.0" encoding="utf-8" standalone="no"?>
<!DOCTYPE svg PUBLIC "-//W3C//DTD SVG 1.1//EN"
  "http://www.w3.org/Graphics/SVG/1.1/DTD/svg11.dtd">
<svg xmlns:xlink="http://www.w3.org/1999/xlink" width="1152pt" height="612pt" viewBox="0 0 1152 612" xmlns="http://www.w3.org/2000/svg" version="1.1">
 <metadata>
  <rdf:RDF xmlns:dc="http://purl.org/dc/elements/1.1/" xmlns:cc="http://creativecommons.org/ns#" xmlns:rdf="http://www.w3.org/1999/02/22-rdf-syntax-ns#">
   <cc:Work>
    <dc:type rdf:resource="http://purl.org/dc/dcmitype/StillImage"/>
    <dc:date>2023-12-16T10:58:15.462517</dc:date>
    <dc:format>image/svg+xml</dc:format>
    <dc:creator>
     <cc:Agent>
      <dc:title>Matplotlib v3.7.0, https://matplotlib.org/</dc:title>
     </cc:Agent>
    </dc:creator>
   </cc:Work>
  </rdf:RDF>
 </metadata>
 <defs>
  <style type="text/css">*{stroke-linejoin: round; stroke-linecap: butt}</style>
 </defs>
 <g id="figure_1">
  <g id="patch_1">
   <path d="M 0 612 
L 1152 612 
L 1152 0 
L 0 0 
z
" style="fill: #ffffff"/>
  </g>
  <g id="axes_1">
   <g id="patch_2">
    <path d="M 144 544.68 
L 1036.8 544.68 
L 1036.8 73.44 
L 144 73.44 
z
" style="fill: #ffffff"/>
   </g>
   <g id="matplotlib.axis_1">
    <g id="xtick_1">
     <g id="line2d_1">
      <defs>
       <path id="mcefecd55df" d="M 0 0 
L 0 -6 
" style="stroke: #000000; stroke-width: 0.8"/>
      </defs>
      <g>
       <use xlink:href="#mcefecd55df" x="144" y="544.68" style="stroke: #000000; stroke-width: 0.8"/>
      </g>
     </g>
     <g id="text_1">
      <!-- 0.0 -->
      <g transform="translate(124.863438 564.896562) scale(0.22 -0.22)">
       <defs>
        <path id="DejaVuSerif-Bold-30" d="M 2228 275 
Q 2603 275 2742 615 
Q 2881 956 2881 2328 
Q 2881 3691 2742 4037 
Q 2603 4384 2228 4384 
Q 1853 4384 1714 4043 
Q 1575 3703 1575 2328 
Q 1575 956 1714 615 
Q 1853 275 2228 275 
z
M 2228 -91 
Q 1294 -91 797 532 
Q 300 1156 300 2328 
Q 300 3500 797 4125 
Q 1294 4750 2228 4750 
Q 3159 4750 3656 4125 
Q 4153 3500 4153 2328 
Q 4153 1156 3656 532 
Q 3159 -91 2228 -91 
z
" transform="scale(0.015625)"/>
        <path id="DejaVuSerif-Bold-2e" d="M 519 506 
Q 519 750 694 925 
Q 869 1100 1113 1100 
Q 1359 1100 1534 925 
Q 1709 750 1709 506 
Q 1709 259 1534 84 
Q 1359 -91 1113 -91 
Q 869 -91 694 84 
Q 519 259 519 506 
z
" transform="scale(0.015625)"/>
       </defs>
       <use xlink:href="#DejaVuSerif-Bold-30"/>
       <use xlink:href="#DejaVuSerif-Bold-2e" x="69.580078"/>
       <use xlink:href="#DejaVuSerif-Bold-30" x="104.394531"/>
      </g>
     </g>
    </g>
    <g id="xtick_2">
     <g id="line2d_2">
      <g>
       <use xlink:href="#mcefecd55df" x="322.56" y="544.68" style="stroke: #000000; stroke-width: 0.8"/>
      </g>
     </g>
     <g id="text_2">
      <!-- 0.2 -->
      <g transform="translate(303.423437 564.896562) scale(0.22 -0.22)">
       <defs>
        <path id="DejaVuSerif-Bold-32" d="M 844 3513 
L 469 3513 
L 469 4519 
Q 850 4634 1223 4692 
Q 1597 4750 1978 4750 
Q 2869 4750 3367 4386 
Q 3866 4022 3866 3372 
Q 3866 2909 3591 2542 
Q 3316 2175 2541 1672 
L 1241 819 
L 3450 819 
L 3450 1369 
L 3878 1369 
L 3878 0 
L 428 0 
L 428 763 
L 1119 1241 
Q 2003 1850 2297 2278 
Q 2591 2706 2591 3278 
Q 2591 3819 2367 4101 
Q 2144 4384 1716 4384 
Q 1347 4384 1125 4161 
Q 903 3938 844 3513 
z
" transform="scale(0.015625)"/>
       </defs>
       <use xlink:href="#DejaVuSerif-Bold-30"/>
       <use xlink:href="#DejaVuSerif-Bold-2e" x="69.580078"/>
       <use xlink:href="#DejaVuSerif-Bold-32" x="104.394531"/>
      </g>
     </g>
    </g>
    <g id="xtick_3">
     <g id="line2d_3">
      <g>
       <use xlink:href="#mcefecd55df" x="501.12" y="544.68" style="stroke: #000000; stroke-width: 0.8"/>
      </g>
     </g>
     <g id="text_3">
      <!-- 0.4 -->
      <g transform="translate(481.983437 564.896562) scale(0.22 -0.22)">
       <defs>
        <path id="DejaVuSerif-Bold-34" d="M 4084 0 
L 1516 0 
L 1516 378 
L 2209 378 
L 2209 1228 
L 263 1228 
L 263 1588 
L 2216 4750 
L 3391 4750 
L 3391 1631 
L 4191 1631 
L 4191 1228 
L 3391 1228 
L 3391 378 
L 4084 378 
L 4084 0 
z
M 2209 1631 
L 2209 3897 
L 819 1631 
L 2209 1631 
z
" transform="scale(0.015625)"/>
       </defs>
       <use xlink:href="#DejaVuSerif-Bold-30"/>
       <use xlink:href="#DejaVuSerif-Bold-2e" x="69.580078"/>
       <use xlink:href="#DejaVuSerif-Bold-34" x="104.394531"/>
      </g>
     </g>
    </g>
    <g id="xtick_4">
     <g id="line2d_4">
      <g>
       <use xlink:href="#mcefecd55df" x="679.68" y="544.68" style="stroke: #000000; stroke-width: 0.8"/>
      </g>
     </g>
     <g id="text_4">
      <!-- 0.6 -->
      <g transform="translate(660.543438 564.896562) scale(0.22 -0.22)">
       <defs>
        <path id="DejaVuSerif-Bold-36" d="M 1575 2766 
Q 1778 2928 2029 3009 
Q 2281 3091 2578 3091 
Q 3294 3091 3701 2672 
Q 4109 2253 4109 1522 
Q 4109 750 3650 329 
Q 3191 -91 2344 -91 
Q 1388 -91 895 486 
Q 403 1063 403 2181 
Q 403 3453 950 4101 
Q 1497 4750 2572 4750 
Q 2853 4750 3175 4703 
Q 3497 4656 3866 4563 
L 3866 3738 
L 3488 3738 
Q 3409 4056 3192 4220 
Q 2975 4384 2631 4384 
Q 2075 4384 1826 4003 
Q 1578 3622 1575 2766 
z
M 2272 275 
Q 2594 275 2731 548 
Q 2869 822 2869 1497 
Q 2869 2172 2731 2445 
Q 2594 2719 2272 2719 
Q 1950 2719 1814 2445 
Q 1678 2172 1678 1497 
Q 1678 822 1814 548 
Q 1950 275 2272 275 
z
" transform="scale(0.015625)"/>
       </defs>
       <use xlink:href="#DejaVuSerif-Bold-30"/>
       <use xlink:href="#DejaVuSerif-Bold-2e" x="69.580078"/>
       <use xlink:href="#DejaVuSerif-Bold-36" x="104.394531"/>
      </g>
     </g>
    </g>
    <g id="xtick_5">
     <g id="line2d_5">
      <g>
       <use xlink:href="#mcefecd55df" x="858.24" y="544.68" style="stroke: #000000; stroke-width: 0.8"/>
      </g>
     </g>
     <g id="text_5">
      <!-- 0.8 -->
      <g transform="translate(839.103438 564.896562) scale(0.22 -0.22)">
       <defs>
        <path id="DejaVuSerif-Bold-38" d="M 2975 2484 
Q 3531 2394 3820 2075 
Q 4109 1756 4109 1241 
Q 4109 597 3623 253 
Q 3138 -91 2222 -91 
Q 1306 -91 818 253 
Q 331 597 331 1241 
Q 331 1756 622 2075 
Q 913 2394 1466 2484 
Q 975 2597 731 2861 
Q 488 3125 488 3531 
Q 488 4125 931 4437 
Q 1375 4750 2222 4750 
Q 3066 4750 3511 4437 
Q 3956 4125 3956 3531 
Q 3956 3125 3711 2861 
Q 3466 2597 2975 2484 
z
M 2747 3519 
Q 2747 4013 2628 4198 
Q 2509 4384 2222 4384 
Q 1931 4384 1814 4198 
Q 1697 4013 1697 3519 
Q 1697 3028 1814 2845 
Q 1931 2663 2222 2663 
Q 2513 2663 2630 2845 
Q 2747 3028 2747 3519 
z
M 2869 1294 
Q 2869 1866 2723 2081 
Q 2578 2297 2222 2297 
Q 1863 2297 1719 2081 
Q 1575 1866 1575 1294 
Q 1575 716 1720 495 
Q 1866 275 2222 275 
Q 2575 275 2722 495 
Q 2869 716 2869 1294 
z
" transform="scale(0.015625)"/>
       </defs>
       <use xlink:href="#DejaVuSerif-Bold-30"/>
       <use xlink:href="#DejaVuSerif-Bold-2e" x="69.580078"/>
       <use xlink:href="#DejaVuSerif-Bold-38" x="104.394531"/>
      </g>
     </g>
    </g>
    <g id="xtick_6">
     <g id="line2d_6">
      <g>
       <use xlink:href="#mcefecd55df" x="1036.8" y="544.68" style="stroke: #000000; stroke-width: 0.8"/>
      </g>
     </g>
     <g id="text_6">
      <!-- 1.0 -->
      <g transform="translate(1017.663437 564.896562) scale(0.22 -0.22)">
       <defs>
        <path id="DejaVuSerif-Bold-31" d="M 878 0 
L 878 378 
L 1753 378 
L 1753 4153 
L 781 3578 
L 781 4044 
L 1953 4750 
L 2938 4750 
L 2938 378 
L 3816 378 
L 3816 0 
L 878 0 
z
" transform="scale(0.015625)"/>
       </defs>
       <use xlink:href="#DejaVuSerif-Bold-31"/>
       <use xlink:href="#DejaVuSerif-Bold-2e" x="69.580078"/>
       <use xlink:href="#DejaVuSerif-Bold-30" x="104.394531"/>
      </g>
     </g>
    </g>
    <g id="text_7">
     <!-- 1-e -->
     <g transform="translate(571.182656 590.188437) scale(0.22 -0.22)">
      <defs>
       <path id="DejaVuSerif-Bold-2d" d="M 347 2138 
L 2309 2138 
L 2309 1294 
L 347 1294 
L 347 2138 
z
" transform="scale(0.015625)"/>
       <path id="DejaVuSerif-Bold-65" d="M 2566 1875 
Q 2566 2531 2444 2795 
Q 2322 3059 2028 3059 
Q 1744 3059 1620 2800 
Q 1497 2541 1497 1931 
L 1497 1875 
L 2566 1875 
z
M 3781 1503 
L 1497 1503 
L 1497 1478 
Q 1497 834 1690 548 
Q 1884 263 2316 263 
Q 2675 263 2897 453 
Q 3119 644 3181 1006 
L 3700 1006 
Q 3566 441 3166 175 
Q 2766 -91 2047 -91 
Q 1184 -91 723 364 
Q 263 819 263 1663 
Q 263 2488 734 2950 
Q 1206 3413 2047 3413 
Q 2872 3413 3312 2927 
Q 3753 2441 3781 1503 
z
" transform="scale(0.015625)"/>
      </defs>
      <use xlink:href="#DejaVuSerif-Bold-31"/>
      <use xlink:href="#DejaVuSerif-Bold-2d" x="69.580078"/>
      <use xlink:href="#DejaVuSerif-Bold-65" x="111.083984"/>
     </g>
    </g>
   </g>
   <g id="matplotlib.axis_2">
    <g id="ytick_1">
     <g id="line2d_7">
      <defs>
       <path id="m1c09907778" d="M 0 0 
L 6 0 
" style="stroke: #000000; stroke-width: 0.8"/>
      </defs>
      <g>
       <use xlink:href="#m1c09907778" x="144" y="544.68" style="stroke: #000000; stroke-width: 0.8"/>
      </g>
     </g>
     <g id="text_8">
      <!-- 1.0 -->
      <g transform="translate(102.226875 553.038281) scale(0.22 -0.22)">
       <use xlink:href="#DejaVuSerif-Bold-31"/>
       <use xlink:href="#DejaVuSerif-Bold-2e" x="69.580078"/>
       <use xlink:href="#DejaVuSerif-Bold-30" x="104.394531"/>
      </g>
     </g>
    </g>
    <g id="ytick_2">
     <g id="line2d_8">
      <g>
       <use xlink:href="#m1c09907778" x="144" y="466.14" style="stroke: #000000; stroke-width: 0.8"/>
      </g>
     </g>
     <g id="text_9">
      <!-- 1.5 -->
      <g transform="translate(102.226875 474.498281) scale(0.22 -0.22)">
       <defs>
        <path id="DejaVuSerif-Bold-35" d="M 3609 4666 
L 3609 3847 
L 1113 3847 
L 1113 2822 
Q 1319 2981 1572 3062 
Q 1825 3144 2106 3144 
Q 2969 3144 3469 2708 
Q 3969 2272 3969 1522 
Q 3969 759 3469 334 
Q 2969 -91 2069 -91 
Q 1688 -91 1311 -28 
Q 934 34 525 166 
L 525 1184 
L 900 1184 
Q 919 725 1139 500 
Q 1359 275 1791 275 
Q 2250 275 2472 583 
Q 2694 891 2694 1522 
Q 2694 2144 2476 2451 
Q 2259 2759 1819 2759 
Q 1581 2759 1395 2661 
Q 1209 2563 1050 2356 
L 738 2356 
L 738 4666 
L 3609 4666 
z
" transform="scale(0.015625)"/>
       </defs>
       <use xlink:href="#DejaVuSerif-Bold-31"/>
       <use xlink:href="#DejaVuSerif-Bold-2e" x="69.580078"/>
       <use xlink:href="#DejaVuSerif-Bold-35" x="104.394531"/>
      </g>
     </g>
    </g>
    <g id="ytick_3">
     <g id="line2d_9">
      <g>
       <use xlink:href="#m1c09907778" x="144" y="387.6" style="stroke: #000000; stroke-width: 0.8"/>
      </g>
     </g>
     <g id="text_10">
      <!-- 2.0 -->
      <g transform="translate(102.226875 395.958281) scale(0.22 -0.22)">
       <use xlink:href="#DejaVuSerif-Bold-32"/>
       <use xlink:href="#DejaVuSerif-Bold-2e" x="69.580078"/>
       <use xlink:href="#DejaVuSerif-Bold-30" x="104.394531"/>
      </g>
     </g>
    </g>
    <g id="ytick_4">
     <g id="line2d_10">
      <g>
       <use xlink:href="#m1c09907778" x="144" y="309.06" style="stroke: #000000; stroke-width: 0.8"/>
      </g>
     </g>
     <g id="text_11">
      <!-- 2.5 -->
      <g transform="translate(102.226875 317.418281) scale(0.22 -0.22)">
       <use xlink:href="#DejaVuSerif-Bold-32"/>
       <use xlink:href="#DejaVuSerif-Bold-2e" x="69.580078"/>
       <use xlink:href="#DejaVuSerif-Bold-35" x="104.394531"/>
      </g>
     </g>
    </g>
    <g id="ytick_5">
     <g id="line2d_11">
      <g>
       <use xlink:href="#m1c09907778" x="144" y="230.52" style="stroke: #000000; stroke-width: 0.8"/>
      </g>
     </g>
     <g id="text_12">
      <!-- 3.0 -->
      <g transform="translate(102.226875 238.878281) scale(0.22 -0.22)">
       <defs>
        <path id="DejaVuSerif-Bold-33" d="M 550 4531 
Q 963 4641 1350 4695 
Q 1738 4750 2106 4750 
Q 2950 4750 3401 4448 
Q 3853 4147 3853 3584 
Q 3853 3163 3593 2900 
Q 3334 2638 2834 2547 
Q 3444 2450 3744 2131 
Q 4044 1813 4044 1259 
Q 4044 606 3526 257 
Q 3009 -91 2028 -91 
Q 1659 -91 1267 -28 
Q 875 34 447 159 
L 447 1184 
L 825 1184 
Q 859 741 1103 508 
Q 1347 275 1778 275 
Q 2253 275 2512 539 
Q 2772 803 2772 1288 
Q 2772 1794 2501 2069 
Q 2231 2344 1734 2344 
L 1528 2344 
L 1528 2719 
L 1691 2719 
Q 2150 2719 2381 2931 
Q 2613 3144 2613 3566 
Q 2613 3963 2395 4173 
Q 2178 4384 1772 4384 
Q 1403 4384 1187 4182 
Q 972 3981 928 3597 
L 550 3597 
L 550 4531 
z
" transform="scale(0.015625)"/>
       </defs>
       <use xlink:href="#DejaVuSerif-Bold-33"/>
       <use xlink:href="#DejaVuSerif-Bold-2e" x="69.580078"/>
       <use xlink:href="#DejaVuSerif-Bold-30" x="104.394531"/>
      </g>
     </g>
    </g>
    <g id="ytick_6">
     <g id="line2d_12">
      <g>
       <use xlink:href="#m1c09907778" x="144" y="151.98" style="stroke: #000000; stroke-width: 0.8"/>
      </g>
     </g>
     <g id="text_13">
      <!-- 3.5 -->
      <g transform="translate(102.226875 160.338281) scale(0.22 -0.22)">
       <use xlink:href="#DejaVuSerif-Bold-33"/>
       <use xlink:href="#DejaVuSerif-Bold-2e" x="69.580078"/>
       <use xlink:href="#DejaVuSerif-Bold-35" x="104.394531"/>
      </g>
     </g>
    </g>
    <g id="ytick_7">
     <g id="line2d_13">
      <g>
       <use xlink:href="#m1c09907778" x="144" y="73.44" style="stroke: #000000; stroke-width: 0.8"/>
      </g>
     </g>
     <g id="text_14">
      <!-- 4.0 -->
      <g transform="translate(102.226875 81.798281) scale(0.22 -0.22)">
       <use xlink:href="#DejaVuSerif-Bold-34"/>
       <use xlink:href="#DejaVuSerif-Bold-2e" x="69.580078"/>
       <use xlink:href="#DejaVuSerif-Bold-30" x="104.394531"/>
      </g>
     </g>
    </g>
    <g id="text_15">
     <!-- log($r_p$ [AU]) -->
     <g transform="translate(91.406875 382.65) rotate(-90) scale(0.22 -0.22)">
      <defs>
       <path id="DejaVuSerif-Bold-6c" d="M 1797 378 
L 2272 378 
L 2272 0 
L 219 0 
L 219 378 
L 691 378 
L 691 4488 
L 219 4488 
L 219 4863 
L 1797 4863 
L 1797 378 
z
" transform="scale(0.015625)"/>
       <path id="DejaVuSerif-Bold-6f" d="M 2138 263 
Q 2488 263 2630 563 
Q 2772 863 2772 1663 
Q 2772 2463 2631 2761 
Q 2491 3059 2138 3059 
Q 1784 3059 1640 2757 
Q 1497 2456 1497 1663 
Q 1497 869 1640 566 
Q 1784 263 2138 263 
z
M 2138 -91 
Q 1259 -91 761 376 
Q 263 844 263 1663 
Q 263 2484 761 2948 
Q 1259 3413 2138 3413 
Q 3019 3413 3516 2948 
Q 4013 2484 4013 1663 
Q 4013 844 3514 376 
Q 3016 -91 2138 -91 
z
" transform="scale(0.015625)"/>
       <path id="DejaVuSerif-Bold-67" d="M 3853 2944 
L 3853 44 
Q 3853 -656 3354 -1039 
Q 2856 -1422 1947 -1422 
Q 1616 -1422 1275 -1370 
Q 934 -1319 575 -1216 
L 575 -422 
L 928 -422 
Q 975 -750 1192 -909 
Q 1409 -1069 1813 -1069 
Q 2325 -1069 2536 -823 
Q 2747 -578 2747 44 
L 2747 422 
Q 2606 163 2367 36 
Q 2128 -91 1778 -91 
Q 1072 -91 667 378 
Q 263 847 263 1663 
Q 263 2481 667 2947 
Q 1072 3413 1778 3413 
Q 2128 3413 2367 3286 
Q 2606 3159 2747 2900 
L 2747 3322 
L 4325 3322 
L 4325 2944 
L 3853 2944 
z
M 2747 1825 
Q 2747 2406 2597 2665 
Q 2447 2925 2119 2925 
Q 1775 2925 1636 2651 
Q 1497 2378 1497 1663 
Q 1497 947 1637 672 
Q 1778 397 2119 397 
Q 2447 397 2597 656 
Q 2747 916 2747 1497 
L 2747 1825 
z
" transform="scale(0.015625)"/>
       <path id="DejaVuSerif-Bold-28" d="M 2694 -997 
Q 1641 -606 1122 122 
Q 603 850 603 1931 
Q 603 3013 1115 3731 
Q 1628 4450 2694 4863 
L 2694 4488 
Q 2200 4188 1983 3598 
Q 1766 3009 1766 1931 
Q 1766 856 1983 267 
Q 2200 -322 2694 -622 
L 2694 -997 
z
" transform="scale(0.015625)"/>
       <path id="DejaVuSerif-Bold-72" d="M 3438 3359 
L 3438 2369 
L 3084 2369 
Q 3066 2634 2941 2764 
Q 2816 2894 2578 2894 
Q 2216 2894 2006 2575 
Q 1797 2256 1797 1691 
L 1797 378 
L 2400 378 
L 2400 0 
L 219 0 
L 219 378 
L 691 378 
L 691 2944 
L 184 2944 
L 184 3322 
L 1797 3322 
L 1797 2731 
Q 1959 3078 2226 3245 
Q 2494 3413 2881 3413 
Q 2978 3413 3117 3398 
Q 3256 3384 3438 3359 
z
" transform="scale(0.015625)"/>
       <path id="DejaVuSerif-Bold-70" d="M 1728 1825 
L 1728 1497 
Q 1728 916 1876 656 
Q 2025 397 2356 397 
Q 2697 397 2836 672 
Q 2975 947 2975 1663 
Q 2975 2378 2836 2651 
Q 2697 2925 2356 2925 
Q 2025 2925 1876 2665 
Q 1728 2406 1728 1825 
z
M 622 2944 
L 147 2944 
L 147 3322 
L 1728 3322 
L 1728 2900 
Q 1869 3159 2106 3286 
Q 2344 3413 2694 3413 
Q 3403 3413 3811 2945 
Q 4219 2478 4219 1663 
Q 4219 847 3811 378 
Q 3403 -91 2694 -91 
Q 2344 -91 2106 36 
Q 1869 163 1728 422 
L 1728 -953 
L 2241 -953 
L 2241 -1331 
L 147 -1331 
L 147 -953 
L 622 -953 
L 622 2944 
z
" transform="scale(0.015625)"/>
       <path id="DejaVuSerif-Bold-20" transform="scale(0.015625)"/>
       <path id="DejaVuSerif-Bold-5b" d="M 800 4863 
L 2572 4863 
L 2572 4488 
L 1906 4488 
L 1906 -469 
L 2572 -469 
L 2572 -844 
L 800 -844 
L 800 4863 
z
" transform="scale(0.015625)"/>
       <path id="DejaVuSerif-Bold-41" d="M -50 0 
L -50 378 
L 331 378 
L 2088 4666 
L 2834 4666 
L 4594 378 
L 5038 378 
L 5038 0 
L 2853 0 
L 2853 378 
L 3309 378 
L 2925 1331 
L 1172 1331 
L 781 378 
L 1338 378 
L 1338 0 
L -50 0 
z
M 1325 1709 
L 2772 1709 
L 2053 3494 
L 1325 1709 
z
" transform="scale(0.015625)"/>
       <path id="DejaVuSerif-Bold-55" d="M 813 4288 
L 219 4288 
L 219 4666 
L 2619 4666 
L 2619 4288 
L 2022 4288 
L 2022 1953 
Q 2022 1081 2294 732 
Q 2566 384 3225 384 
Q 3869 384 4139 736 
Q 4409 1088 4409 1953 
L 4409 4288 
L 3816 4288 
L 3816 4666 
L 5441 4666 
L 5441 4288 
L 4844 4288 
L 4844 1888 
Q 4844 819 4381 364 
Q 3919 -91 2828 -91 
Q 1744 -91 1278 368 
Q 813 828 813 1894 
L 813 4288 
z
" transform="scale(0.015625)"/>
       <path id="DejaVuSerif-Bold-5d" d="M 2228 4863 
L 2228 -844 
L 453 -844 
L 453 -469 
L 1119 -469 
L 1119 4488 
L 453 4488 
L 453 4863 
L 2228 4863 
z
" transform="scale(0.015625)"/>
       <path id="DejaVuSerif-Bold-29" d="M 325 -997 
L 325 -622 
Q 819 -322 1036 267 
Q 1253 856 1253 1931 
Q 1253 3009 1036 3598 
Q 819 4188 325 4488 
L 325 4863 
Q 1391 4450 1905 3731 
Q 2419 3013 2419 1931 
Q 2419 850 1898 122 
Q 1378 -606 325 -997 
z
" transform="scale(0.015625)"/>
      </defs>
      <use xlink:href="#DejaVuSerif-Bold-6c" transform="translate(0 0.015625)"/>
      <use xlink:href="#DejaVuSerif-Bold-6f" transform="translate(37.988281 0.015625)"/>
      <use xlink:href="#DejaVuSerif-Bold-67" transform="translate(104.6875 0.015625)"/>
      <use xlink:href="#DejaVuSerif-Bold-28" transform="translate(174.609375 0.015625)"/>
      <use xlink:href="#DejaVuSerif-Bold-72" transform="translate(221.923828 0.015625)"/>
      <use xlink:href="#DejaVuSerif-Bold-70" transform="translate(275.517734 -15.55625) scale(0.7)"/>
      <use xlink:href="#DejaVuSerif-Bold-20" transform="translate(327.058359 0.015625)"/>
      <use xlink:href="#DejaVuSerif-Bold-5b" transform="translate(361.872813 0.015625)"/>
      <use xlink:href="#DejaVuSerif-Bold-41" transform="translate(409.187266 0.015625)"/>
      <use xlink:href="#DejaVuSerif-Bold-55" transform="translate(486.775156 0.015625)"/>
      <use xlink:href="#DejaVuSerif-Bold-5d" transform="translate(573.982188 0.015625)"/>
      <use xlink:href="#DejaVuSerif-Bold-29" transform="translate(621.296641 0.015625)"/>
     </g>
    </g>
   </g>
   <g id="LineCollection_1">
    <path d="M 509.217696 103.834695 
L 510.051571 103.834695 
" clip-path="url(#p63d24adcdf)" style="fill: none; stroke: #000000; stroke-width: 1.5"/>
    <path d="M 594.291715 87.35367 
L 595.529136 87.35367 
" clip-path="url(#p63d24adcdf)" style="fill: none; stroke: #000000; stroke-width: 1.5"/>
    <path d="M 240.35544 319.316104 
L 241.832131 319.316104 
" clip-path="url(#p63d24adcdf)" style="fill: none; stroke: #000000; stroke-width: 1.5"/>
    <path d="M 646.749965 215.894345 
L 648.469498 215.894345 
" clip-path="url(#p63d24adcdf)" style="fill: none; stroke: #000000; stroke-width: 1.5"/>
    <path d="M 152.317325 479.753578 
L 154.093997 479.753578 
" clip-path="url(#p63d24adcdf)" style="fill: none; stroke: #000000; stroke-width: 1.5"/>
    <path d="M 157.667875 438.385092 
L 158.541034 438.385092 
" clip-path="url(#p63d24adcdf)" style="fill: none; stroke: #000000; stroke-width: 1.5"/>
    <path d="M 775.138176 198.0279 
L 799.168781 198.0279 
" clip-path="url(#p63d24adcdf)" style="fill: none; stroke: #000000; stroke-width: 1.5"/>
    <path d="M 350.576064 224.145692 
L 369.41593 224.145692 
" clip-path="url(#p63d24adcdf)" style="fill: none; stroke: #000000; stroke-width: 1.5"/>
    <path d="M 533.670595 177.419085 
L 541.937923 177.419085 
" clip-path="url(#p63d24adcdf)" style="fill: none; stroke: #000000; stroke-width: 1.5"/>
    <path d="M 675.940061 114.673659 
L 685.855498 114.673659 
" clip-path="url(#p63d24adcdf)" style="fill: none; stroke: #000000; stroke-width: 1.5"/>
    <path d="M 916.386278 158.148104 
L 926.241005 158.148104 
" clip-path="url(#p63d24adcdf)" style="fill: none; stroke: #000000; stroke-width: 1.5"/>
    <path d="M 502.04137 228.061831 
L 526.613011 228.061831 
" clip-path="url(#p63d24adcdf)" style="fill: none; stroke: #000000; stroke-width: 1.5"/>
    <path d="M 171.606269 387.27206 
L 171.747331 387.27206 
" clip-path="url(#p63d24adcdf)" style="fill: none; stroke: #000000; stroke-width: 1.5"/>
    <path d="M 247.137149 375.639093 
L 247.238928 375.639093 
" clip-path="url(#p63d24adcdf)" style="fill: none; stroke: #000000; stroke-width: 1.5"/>
    <path d="M 537.286435 199.51924 
L 538.716701 199.51924 
" clip-path="url(#p63d24adcdf)" style="fill: none; stroke: #000000; stroke-width: 1.5"/>
    <path d="M 575.497382 154.180347 
L 580.477421 154.180347 
" clip-path="url(#p63d24adcdf)" style="fill: none; stroke: #000000; stroke-width: 1.5"/>
    <path d="M 241.609824 286.152416 
L 268.311686 286.152416 
" clip-path="url(#p63d24adcdf)" style="fill: none; stroke: #000000; stroke-width: 1.5"/>
    <path d="M 347.390554 247.621526 
L 351.820627 247.621526 
" clip-path="url(#p63d24adcdf)" style="fill: none; stroke: #000000; stroke-width: 1.5"/>
    <path d="M 199.028621 382.331748 
L 207.569146 382.331748 
" clip-path="url(#p63d24adcdf)" style="fill: none; stroke: #000000; stroke-width: 1.5"/>
    <path clip-path="url(#p63d24adcdf)" style="fill: none; stroke: #000000; stroke-width: 1.5"/>
    <path d="M 684.429696 192.183709 
L 691.389965 192.183709 
" clip-path="url(#p63d24adcdf)" style="fill: none; stroke: #000000; stroke-width: 1.5"/>
    <path d="M 76.469501 223.731647 
L 147.875645 223.731647 
" clip-path="url(#p63d24adcdf)" style="fill: none; stroke: #000000; stroke-width: 1.5"/>
    <path d="M 385.010467 330.106816 
L 385.33009 330.106816 
" clip-path="url(#p63d24adcdf)" style="fill: none; stroke: #000000; stroke-width: 1.5"/>
    <path d="M 385.159565 221.011923 
L 388.121875 221.011923 
" clip-path="url(#p63d24adcdf)" style="fill: none; stroke: #000000; stroke-width: 1.5"/>
    <path d="M 392.782291 237.584606 
L 400.180032 237.584606 
" clip-path="url(#p63d24adcdf)" style="fill: none; stroke: #000000; stroke-width: 1.5"/>
    <path d="M 921.23329 73.690071 
L 922.290365 73.690071 
" clip-path="url(#p63d24adcdf)" style="fill: none; stroke: #000000; stroke-width: 1.5"/>
    <path d="M 765.822701 98.087806 
L 829.965024 98.087806 
" clip-path="url(#p63d24adcdf)" style="fill: none; stroke: #000000; stroke-width: 1.5"/>
    <path d="M 192.064781 309.478338 
L 200.087482 309.478338 
" clip-path="url(#p63d24adcdf)" style="fill: none; stroke: #000000; stroke-width: 1.5"/>
    <path d="M 269.836589 213.5542 
L 279.14135 213.5542 
" clip-path="url(#p63d24adcdf)" style="fill: none; stroke: #000000; stroke-width: 1.5"/>
    <path d="M 872.970307 87.885783 
L 925.170538 87.885783 
" clip-path="url(#p63d24adcdf)" style="fill: none; stroke: #000000; stroke-width: 1.5"/>
    <path d="M 308.803738 262.656995 
L 316.106842 262.656995 
" clip-path="url(#p63d24adcdf)" style="fill: none; stroke: #000000; stroke-width: 1.5"/>
    <path d="M 462.263558 244.06363 
L 479.885645 244.06363 
" clip-path="url(#p63d24adcdf)" style="fill: none; stroke: #000000; stroke-width: 1.5"/>
   </g>
   <g id="LineCollection_2">
    <path d="M 509.634634 104.039704 
L 509.634634 103.629687 
" clip-path="url(#p63d24adcdf)" style="fill: none; stroke: #000000; stroke-width: 1.5"/>
    <path d="M 594.910426 87.6599 
L 594.910426 87.047441 
" clip-path="url(#p63d24adcdf)" style="fill: none; stroke: #000000; stroke-width: 1.5"/>
    <path d="M 241.093786 319.585762 
L 241.093786 319.046447 
" clip-path="url(#p63d24adcdf)" style="fill: none; stroke: #000000; stroke-width: 1.5"/>
    <path d="M 647.609731 216.417659 
L 647.609731 215.371031 
" clip-path="url(#p63d24adcdf)" style="fill: none; stroke: #000000; stroke-width: 1.5"/>
    <path d="M 153.205661 480.619293 
L 153.205661 478.887863 
" clip-path="url(#p63d24adcdf)" style="fill: none; stroke: #000000; stroke-width: 1.5"/>
    <path d="M 158.104454 441.644007 
L 158.104454 435.126177 
" clip-path="url(#p63d24adcdf)" style="fill: none; stroke: #000000; stroke-width: 1.5"/>
    <path d="M 787.153478 205.765417 
L 787.153478 190.290383 
" clip-path="url(#p63d24adcdf)" style="fill: none; stroke: #000000; stroke-width: 1.5"/>
    <path d="M 359.995997 231.5995 
L 359.995997 216.691884 
" clip-path="url(#p63d24adcdf)" style="fill: none; stroke: #000000; stroke-width: 1.5"/>
    <path d="M 537.804259 179.707388 
L 537.804259 175.130781 
" clip-path="url(#p63d24adcdf)" style="fill: none; stroke: #000000; stroke-width: 1.5"/>
    <path d="M 680.897779 118.160745 
L 680.897779 111.186574 
" clip-path="url(#p63d24adcdf)" style="fill: none; stroke: #000000; stroke-width: 1.5"/>
    <path d="M 921.313642 164.94553 
L 921.313642 151.350677 
" clip-path="url(#p63d24adcdf)" style="fill: none; stroke: #000000; stroke-width: 1.5"/>
    <path d="M 514.32719 232.000298 
L 514.32719 224.123363 
" clip-path="url(#p63d24adcdf)" style="fill: none; stroke: #000000; stroke-width: 1.5"/>
    <path d="M 171.6768 387.634511 
L 171.6768 386.90961 
" clip-path="url(#p63d24adcdf)" style="fill: none; stroke: #000000; stroke-width: 1.5"/>
    <path d="M 247.188038 375.680569 
L 247.188038 375.597618 
" clip-path="url(#p63d24adcdf)" style="fill: none; stroke: #000000; stroke-width: 1.5"/>
    <path d="M 538.001568 200.035635 
L 538.001568 199.002845 
" clip-path="url(#p63d24adcdf)" style="fill: none; stroke: #000000; stroke-width: 1.5"/>
    <path d="M 577.987402 155.458046 
L 577.987402 152.902648 
" clip-path="url(#p63d24adcdf)" style="fill: none; stroke: #000000; stroke-width: 1.5"/>
    <path d="M 254.960755 296.804719 
L 254.960755 275.500113 
" clip-path="url(#p63d24adcdf)" style="fill: none; stroke: #000000; stroke-width: 1.5"/>
    <path d="M 349.60559 249.828192 
L 349.60559 245.41486 
" clip-path="url(#p63d24adcdf)" style="fill: none; stroke: #000000; stroke-width: 1.5"/>
    <path d="M 203.298883 383.793804 
L 203.298883 380.869692 
" clip-path="url(#p63d24adcdf)" style="fill: none; stroke: #000000; stroke-width: 1.5"/>
    <path clip-path="url(#p63d24adcdf)" style="fill: none; stroke: #000000; stroke-width: 1.5"/>
    <path d="M 687.90983 194.022459 
L 687.90983 190.344959 
" clip-path="url(#p63d24adcdf)" style="fill: none; stroke: #000000; stroke-width: 1.5"/>
    <path d="M 112.172573 397.70762 
L 112.172573 49.755673 
" clip-path="url(#p63d24adcdf)" style="fill: none; stroke: #000000; stroke-width: 1.5"/>
    <path d="M 385.170278 330.182205 
L 385.170278 330.031426 
" clip-path="url(#p63d24adcdf)" style="fill: none; stroke: #000000; stroke-width: 1.5"/>
    <path d="M 386.64072 222.372936 
L 386.64072 219.65091 
" clip-path="url(#p63d24adcdf)" style="fill: none; stroke: #000000; stroke-width: 1.5"/>
    <path d="M 396.481162 240.219907 
L 396.481162 234.949304 
" clip-path="url(#p63d24adcdf)" style="fill: none; stroke: #000000; stroke-width: 1.5"/>
    <path d="M 921.761827 74.430562 
L 921.761827 72.949581 
" clip-path="url(#p63d24adcdf)" style="fill: none; stroke: #000000; stroke-width: 1.5"/>
    <path d="M 797.893862 119.234296 
L 797.893862 76.941317 
" clip-path="url(#p63d24adcdf)" style="fill: none; stroke: #000000; stroke-width: 1.5"/>
    <path d="M 196.076131 311.291545 
L 196.076131 307.665132 
" clip-path="url(#p63d24adcdf)" style="fill: none; stroke: #000000; stroke-width: 1.5"/>
    <path d="M 274.48897 215.738482 
L 274.48897 211.369917 
" clip-path="url(#p63d24adcdf)" style="fill: none; stroke: #000000; stroke-width: 1.5"/>
    <path d="M 899.070422 118.137008 
L 899.070422 57.634558 
" clip-path="url(#p63d24adcdf)" style="fill: none; stroke: #000000; stroke-width: 1.5"/>
    <path d="M 312.45529 263.516298 
L 312.45529 261.797693 
" clip-path="url(#p63d24adcdf)" style="fill: none; stroke: #000000; stroke-width: 1.5"/>
    <path d="M 471.074602 246.738774 
L 471.074602 241.388487 
" clip-path="url(#p63d24adcdf)" style="fill: none; stroke: #000000; stroke-width: 1.5"/>
   </g>
   <g id="LineCollection_3">
    <path d="M 554.424624 98.178625 
L 555.794179 98.178625 
" clip-path="url(#p63d24adcdf)" style="fill: none; stroke: #ff0000; stroke-width: 1.5"/>
    <path d="M 74.605334 79.05931 
L 106.085462 79.05931 
" clip-path="url(#p63d24adcdf)" style="fill: none; stroke: #ff0000; stroke-width: 1.5"/>
    <path d="M 245.587248 240.607706 
L 246.842525 240.607706 
" clip-path="url(#p63d24adcdf)" style="fill: none; stroke: #ff0000; stroke-width: 1.5"/>
    <path d="M 565.382851 125.596799 
L 568.127318 125.596799 
" clip-path="url(#p63d24adcdf)" style="fill: none; stroke: #ff0000; stroke-width: 1.5"/>
    <path d="M 711.082454 184.804246 
L 717.639178 184.804246 
" clip-path="url(#p63d24adcdf)" style="fill: none; stroke: #ff0000; stroke-width: 1.5"/>
    <path d="M 340.660627 293.089532 
L 344.610374 293.089532 
" clip-path="url(#p63d24adcdf)" style="fill: none; stroke: #ff0000; stroke-width: 1.5"/>
    <path d="M 249.829834 238.266434 
L 252.976061 238.266434 
" clip-path="url(#p63d24adcdf)" style="fill: none; stroke: #ff0000; stroke-width: 1.5"/>
    <path d="M 203.503334 246.189829 
L 204.221146 246.189829 
" clip-path="url(#p63d24adcdf)" style="fill: none; stroke: #ff0000; stroke-width: 1.5"/>
    <path d="M 631.356307 131.983743 
L 645.451834 131.983743 
" clip-path="url(#p63d24adcdf)" style="fill: none; stroke: #ff0000; stroke-width: 1.5"/>
    <path d="M 306.206582 335.748158 
L 306.577987 335.748158 
" clip-path="url(#p63d24adcdf)" style="fill: none; stroke: #ff0000; stroke-width: 1.5"/>
    <path d="M 350.321616 180.392422 
L 355.730198 180.392422 
" clip-path="url(#p63d24adcdf)" style="fill: none; stroke: #ff0000; stroke-width: 1.5"/>
    <path d="M 302.523782 83.505644 
L 317.853158 83.505644 
" clip-path="url(#p63d24adcdf)" style="fill: none; stroke: #ff0000; stroke-width: 1.5"/>
    <path d="M 440.65512 152.316528 
L 493.430314 152.316528 
" clip-path="url(#p63d24adcdf)" style="fill: none; stroke: #ff0000; stroke-width: 1.5"/>
   </g>
   <g id="LineCollection_4">
    <path d="M 555.109402 98.415892 
L 555.109402 97.941359 
" clip-path="url(#p63d24adcdf)" style="fill: none; stroke: #ff0000; stroke-width: 1.5"/>
    <path d="M 90.345398 125.536129 
L 90.345398 32.582491 
" clip-path="url(#p63d24adcdf)" style="fill: none; stroke: #ff0000; stroke-width: 1.5"/>
    <path d="M 246.214886 240.748904 
L 246.214886 240.466508 
" clip-path="url(#p63d24adcdf)" style="fill: none; stroke: #ff0000; stroke-width: 1.5"/>
    <path d="M 566.755085 126.349777 
L 566.755085 124.84382 
" clip-path="url(#p63d24adcdf)" style="fill: none; stroke: #ff0000; stroke-width: 1.5"/>
    <path d="M 714.360816 186.641695 
L 714.360816 182.966797 
" clip-path="url(#p63d24adcdf)" style="fill: none; stroke: #ff0000; stroke-width: 1.5"/>
    <path d="M 342.635501 293.599661 
L 342.635501 292.579403 
" clip-path="url(#p63d24adcdf)" style="fill: none; stroke: #ff0000; stroke-width: 1.5"/>
    <path d="M 251.402947 241.132017 
L 251.402947 235.400851 
" clip-path="url(#p63d24adcdf)" style="fill: none; stroke: #ff0000; stroke-width: 1.5"/>
    <path d="M 203.86224 247.568803 
L 203.86224 244.810855 
" clip-path="url(#p63d24adcdf)" style="fill: none; stroke: #ff0000; stroke-width: 1.5"/>
    <path d="M 638.40407 139.674156 
L 638.40407 124.29333 
" clip-path="url(#p63d24adcdf)" style="fill: none; stroke: #ff0000; stroke-width: 1.5"/>
    <path d="M 306.392285 335.804457 
L 306.392285 335.691859 
" clip-path="url(#p63d24adcdf)" style="fill: none; stroke: #ff0000; stroke-width: 1.5"/>
    <path d="M 353.025907 181.742311 
L 353.025907 179.042534 
" clip-path="url(#p63d24adcdf)" style="fill: none; stroke: #ff0000; stroke-width: 1.5"/>
    <path d="M 310.18847 91.24833 
L 310.18847 75.762958 
" clip-path="url(#p63d24adcdf)" style="fill: none; stroke: #ff0000; stroke-width: 1.5"/>
    <path d="M 467.042717 160.864368 
L 467.042717 143.768688 
" clip-path="url(#p63d24adcdf)" style="fill: none; stroke: #ff0000; stroke-width: 1.5"/>
   </g>
   <g id="line2d_14">
    <path d="M 144.8928 454.735992 
L 1027.872 50.82048 
L 1027.872 50.82048 
" clip-path="url(#p63d24adcdf)" style="fill: none; stroke: #808080; stroke-width: 1.5; stroke-linecap: square"/>
   </g>
   <g id="line2d_15">
    <defs>
     <path id="mebc8f68805" d="M -3 3 
L 3 3 
L 3 -3 
L -3 -3 
z
" style="stroke: #000000; stroke-linejoin: miter"/>
    </defs>
    <g clip-path="url(#p63d24adcdf)">
     <use xlink:href="#mebc8f68805" x="509.634634" y="103.834695" style="stroke: #000000; stroke-linejoin: miter"/>
     <use xlink:href="#mebc8f68805" x="594.910426" y="87.35367" style="stroke: #000000; stroke-linejoin: miter"/>
     <use xlink:href="#mebc8f68805" x="241.093786" y="319.316104" style="stroke: #000000; stroke-linejoin: miter"/>
     <use xlink:href="#mebc8f68805" x="647.609731" y="215.894345" style="stroke: #000000; stroke-linejoin: miter"/>
     <use xlink:href="#mebc8f68805" x="153.205661" y="479.753578" style="stroke: #000000; stroke-linejoin: miter"/>
     <use xlink:href="#mebc8f68805" x="158.104454" y="438.385092" style="stroke: #000000; stroke-linejoin: miter"/>
     <use xlink:href="#mebc8f68805" x="787.153478" y="198.0279" style="stroke: #000000; stroke-linejoin: miter"/>
     <use xlink:href="#mebc8f68805" x="359.995997" y="224.145692" style="stroke: #000000; stroke-linejoin: miter"/>
     <use xlink:href="#mebc8f68805" x="537.804259" y="177.419085" style="stroke: #000000; stroke-linejoin: miter"/>
     <use xlink:href="#mebc8f68805" x="680.897779" y="114.673659" style="stroke: #000000; stroke-linejoin: miter"/>
     <use xlink:href="#mebc8f68805" x="921.313642" y="158.148104" style="stroke: #000000; stroke-linejoin: miter"/>
     <use xlink:href="#mebc8f68805" x="514.32719" y="228.061831" style="stroke: #000000; stroke-linejoin: miter"/>
     <use xlink:href="#mebc8f68805" x="171.6768" y="387.27206" style="stroke: #000000; stroke-linejoin: miter"/>
     <use xlink:href="#mebc8f68805" x="247.188038" y="375.639093" style="stroke: #000000; stroke-linejoin: miter"/>
     <use xlink:href="#mebc8f68805" x="538.001568" y="199.51924" style="stroke: #000000; stroke-linejoin: miter"/>
     <use xlink:href="#mebc8f68805" x="577.987402" y="154.180347" style="stroke: #000000; stroke-linejoin: miter"/>
     <use xlink:href="#mebc8f68805" x="254.960755" y="286.152416" style="stroke: #000000; stroke-linejoin: miter"/>
     <use xlink:href="#mebc8f68805" x="349.60559" y="247.621526" style="stroke: #000000; stroke-linejoin: miter"/>
     <use xlink:href="#mebc8f68805" x="203.298883" y="382.331748" style="stroke: #000000; stroke-linejoin: miter"/>
     <use xlink:href="#mebc8f68805" x="-1" y="375.071463" style="stroke: #000000; stroke-linejoin: miter"/>
     <use xlink:href="#mebc8f68805" x="-1" y="185.677284" style="stroke: #000000; stroke-linejoin: miter"/>
     <use xlink:href="#mebc8f68805" x="687.90983" y="192.183709" style="stroke: #000000; stroke-linejoin: miter"/>
     <use xlink:href="#mebc8f68805" x="112.172573" y="223.731647" style="stroke: #000000; stroke-linejoin: miter"/>
     <use xlink:href="#mebc8f68805" x="385.170278" y="330.106816" style="stroke: #000000; stroke-linejoin: miter"/>
     <use xlink:href="#mebc8f68805" x="386.64072" y="221.011923" style="stroke: #000000; stroke-linejoin: miter"/>
     <use xlink:href="#mebc8f68805" x="396.481162" y="237.584606" style="stroke: #000000; stroke-linejoin: miter"/>
     <use xlink:href="#mebc8f68805" x="921.761827" y="73.690071" style="stroke: #000000; stroke-linejoin: miter"/>
     <use xlink:href="#mebc8f68805" x="797.893862" y="98.087806" style="stroke: #000000; stroke-linejoin: miter"/>
     <use xlink:href="#mebc8f68805" x="196.076131" y="309.478338" style="stroke: #000000; stroke-linejoin: miter"/>
     <use xlink:href="#mebc8f68805" x="274.48897" y="213.5542" style="stroke: #000000; stroke-linejoin: miter"/>
     <use xlink:href="#mebc8f68805" x="899.070422" y="87.885783" style="stroke: #000000; stroke-linejoin: miter"/>
     <use xlink:href="#mebc8f68805" x="312.45529" y="262.656995" style="stroke: #000000; stroke-linejoin: miter"/>
     <use xlink:href="#mebc8f68805" x="471.074602" y="244.06363" style="stroke: #000000; stroke-linejoin: miter"/>
    </g>
   </g>
   <g id="line2d_16">
    <defs>
     <path id="mc918cc1014" d="M 0 3 
C 0.795609 3 1.55874 2.683901 2.12132 2.12132 
C 2.683901 1.55874 3 0.795609 3 0 
C 3 -0.795609 2.683901 -1.55874 2.12132 -2.12132 
C 1.55874 -2.683901 0.795609 -3 0 -3 
C -0.795609 -3 -1.55874 -2.683901 -2.12132 -2.12132 
C -2.683901 -1.55874 -3 -0.795609 -3 0 
C -3 0.795609 -2.683901 1.55874 -2.12132 2.12132 
C -1.55874 2.683901 -0.795609 3 0 3 
z
" style="stroke: #ff0000"/>
    </defs>
    <g clip-path="url(#p63d24adcdf)">
     <use xlink:href="#mc918cc1014" x="555.109402" y="98.178625" style="fill: #ff0000; stroke: #ff0000"/>
     <use xlink:href="#mc918cc1014" x="90.345398" y="79.05931" style="fill: #ff0000; stroke: #ff0000"/>
     <use xlink:href="#mc918cc1014" x="246.214886" y="240.607706" style="fill: #ff0000; stroke: #ff0000"/>
     <use xlink:href="#mc918cc1014" x="566.755085" y="125.596799" style="fill: #ff0000; stroke: #ff0000"/>
     <use xlink:href="#mc918cc1014" x="714.360816" y="184.804246" style="fill: #ff0000; stroke: #ff0000"/>
     <use xlink:href="#mc918cc1014" x="342.635501" y="293.089532" style="fill: #ff0000; stroke: #ff0000"/>
     <use xlink:href="#mc918cc1014" x="251.402947" y="238.266434" style="fill: #ff0000; stroke: #ff0000"/>
     <use xlink:href="#mc918cc1014" x="203.86224" y="246.189829" style="fill: #ff0000; stroke: #ff0000"/>
     <use xlink:href="#mc918cc1014" x="638.40407" y="131.983743" style="fill: #ff0000; stroke: #ff0000"/>
     <use xlink:href="#mc918cc1014" x="306.392285" y="335.748158" style="fill: #ff0000; stroke: #ff0000"/>
     <use xlink:href="#mc918cc1014" x="353.025907" y="180.392422" style="fill: #ff0000; stroke: #ff0000"/>
     <use xlink:href="#mc918cc1014" x="310.18847" y="83.505644" style="fill: #ff0000; stroke: #ff0000"/>
     <use xlink:href="#mc918cc1014" x="467.042717" y="152.316528" style="fill: #ff0000; stroke: #ff0000"/>
    </g>
   </g>
   <g id="text_16">
    <g id="patch_3">
     <path d="M 503.594788 283.148716 
L 902.304711 100.760362 
L 890.152923 74.195955 
L 491.443 256.584309 
z
" style="fill: #ffffff; opacity: 0.1; stroke: #ffffff; stroke-linejoin: miter"/>
    </g>
    <!-- Zone of Avoidance (Burkert+2023) -->
    <g style="fill: #808080" transform="translate(503.645307 273.739645) rotate(-24.581547) scale(0.22 -0.22)">
     <defs>
      <path id="DejaVuSerif-Bold-5a" d="M 238 0 
L 238 441 
L 3022 4238 
L 788 4238 
L 788 3541 
L 359 3541 
L 359 4666 
L 4409 4666 
L 4409 4225 
L 1656 428 
L 4013 428 
L 4013 1081 
L 4441 1081 
L 4441 0 
L 238 0 
z
" transform="scale(0.015625)"/>
      <path id="DejaVuSerif-Bold-6e" d="M 219 0 
L 219 378 
L 691 378 
L 691 2944 
L 219 2944 
L 219 3322 
L 1797 3322 
L 1797 2853 
Q 1997 3150 2253 3281 
Q 2509 3413 2900 3413 
Q 3459 3413 3745 3083 
Q 4031 2753 4031 2113 
L 4031 378 
L 4506 378 
L 4506 0 
L 2522 0 
L 2522 378 
L 2925 378 
L 2925 2144 
Q 2925 2566 2817 2730 
Q 2709 2894 2444 2894 
Q 2109 2894 1953 2648 
Q 1797 2403 1797 1869 
L 1797 378 
L 2203 378 
L 2203 0 
L 219 0 
z
" transform="scale(0.015625)"/>
      <path id="DejaVuSerif-Bold-66" d="M 3097 4031 
L 2747 4031 
Q 2722 4275 2605 4394 
Q 2488 4513 2272 4513 
Q 2022 4513 1909 4333 
Q 1797 4153 1797 3750 
L 1797 3322 
L 2631 3322 
L 2631 2944 
L 1797 2944 
L 1797 378 
L 2438 378 
L 2438 0 
L 219 0 
L 219 378 
L 691 378 
L 691 2944 
L 197 2944 
L 197 3322 
L 691 3322 
L 691 3738 
Q 691 4291 1044 4577 
Q 1397 4863 2081 4863 
Q 2347 4863 2600 4833 
Q 2853 4803 3097 4744 
L 3097 4031 
z
" transform="scale(0.015625)"/>
      <path id="DejaVuSerif-Bold-76" d="M 1428 0 
L 250 2944 
L -116 2944 
L -116 3322 
L 1791 3322 
L 1791 2944 
L 1388 2944 
L 2228 844 
L 3066 2944 
L 2631 2944 
L 2631 3322 
L 3878 3322 
L 3878 2944 
L 3494 2944 
L 2316 0 
L 1428 0 
z
" transform="scale(0.015625)"/>
      <path id="DejaVuSerif-Bold-69" d="M 588 4263 
Q 588 4516 763 4689 
Q 938 4863 1191 4863 
Q 1438 4863 1611 4689 
Q 1784 4516 1784 4263 
Q 1784 4016 1611 3842 
Q 1438 3669 1191 3669 
Q 938 3669 763 3841 
Q 588 4013 588 4263 
z
M 1797 378 
L 2272 378 
L 2272 0 
L 219 0 
L 219 378 
L 691 378 
L 691 2944 
L 219 2944 
L 219 3322 
L 1797 3322 
L 1797 378 
z
" transform="scale(0.015625)"/>
      <path id="DejaVuSerif-Bold-64" d="M 2747 1497 
L 2747 1825 
Q 2747 2406 2597 2665 
Q 2447 2925 2119 2925 
Q 1775 2925 1636 2651 
Q 1497 2378 1497 1663 
Q 1497 947 1637 672 
Q 1778 397 2119 397 
Q 2447 397 2597 656 
Q 2747 916 2747 1497 
z
M 3853 378 
L 4325 378 
L 4325 0 
L 2747 0 
L 2747 422 
Q 2606 163 2367 36 
Q 2128 -91 1778 -91 
Q 1072 -91 667 378 
Q 263 847 263 1663 
Q 263 2481 667 2947 
Q 1072 3413 1778 3413 
Q 2128 3413 2367 3286 
Q 2606 3159 2747 2900 
L 2747 4488 
L 2272 4488 
L 2272 4863 
L 3853 4863 
L 3853 378 
z
" transform="scale(0.015625)"/>
      <path id="DejaVuSerif-Bold-61" d="M 3525 2041 
L 3525 378 
L 4000 378 
L 4000 0 
L 2419 0 
L 2419 422 
Q 2200 159 1931 34 
Q 1663 -91 1319 -91 
Q 809 -91 536 182 
Q 263 456 263 966 
Q 263 1525 655 1803 
Q 1047 2081 1838 2081 
L 2419 2081 
L 2419 2278 
Q 2419 2681 2228 2873 
Q 2038 3066 1638 3066 
Q 1306 3066 1126 2930 
Q 947 2794 872 2484 
L 519 2484 
L 519 3200 
Q 816 3306 1134 3359 
Q 1453 3413 1806 3413 
Q 2697 3413 3111 3081 
Q 3525 2750 3525 2041 
z
M 2419 1044 
L 2419 1709 
L 2003 1709 
Q 1694 1709 1528 1540 
Q 1363 1372 1363 1056 
Q 1363 741 1483 584 
Q 1603 428 1850 428 
Q 2106 428 2262 597 
Q 2419 766 2419 1044 
z
" transform="scale(0.015625)"/>
      <path id="DejaVuSerif-Bold-63" d="M 3609 1038 
Q 3491 469 3123 189 
Q 2756 -91 2125 -91 
Q 1238 -91 750 368 
Q 263 828 263 1663 
Q 263 2488 744 2950 
Q 1225 3413 2081 3413 
Q 2428 3413 2781 3347 
Q 3134 3281 3500 3150 
L 3500 2228 
L 3150 2228 
Q 3100 2650 2903 2854 
Q 2706 3059 2350 3059 
Q 1888 3059 1692 2746 
Q 1497 2434 1497 1663 
Q 1497 909 1687 586 
Q 1878 263 2309 263 
Q 2644 263 2845 463 
Q 3047 663 3091 1038 
L 3609 1038 
z
" transform="scale(0.015625)"/>
      <path id="DejaVuSerif-Bold-42" d="M 300 0 
L 300 378 
L 897 378 
L 897 4288 
L 300 4288 
L 300 4666 
L 3066 4666 
Q 3919 4666 4347 4378 
Q 4775 4091 4775 3513 
Q 4775 3097 4479 2853 
Q 4184 2609 3603 2547 
Q 4306 2481 4681 2172 
Q 5056 1863 5056 1350 
Q 5056 656 4532 328 
Q 4009 0 2894 0 
L 300 0 
z
M 2100 2719 
L 2509 2719 
Q 3047 2719 3306 2914 
Q 3566 3109 3566 3513 
Q 3566 3919 3314 4103 
Q 3063 4288 2509 4288 
L 2100 4288 
L 2100 2719 
z
M 2100 378 
L 2547 378 
Q 3144 378 3431 615 
Q 3719 853 3719 1350 
Q 3719 1850 3428 2097 
Q 3138 2344 2547 2344 
L 2100 2344 
L 2100 378 
z
" transform="scale(0.015625)"/>
      <path id="DejaVuSerif-Bold-75" d="M 3963 3322 
L 3963 378 
L 4434 378 
L 4434 0 
L 2853 0 
L 2853 469 
Q 2656 172 2400 40 
Q 2144 -91 1753 -91 
Q 1194 -91 908 239 
Q 622 569 622 1209 
L 622 2944 
L 147 2944 
L 147 3322 
L 1728 3322 
L 1728 1381 
Q 1728 763 1831 595 
Q 1934 428 2209 428 
Q 2544 428 2698 675 
Q 2853 922 2853 1459 
L 2853 2944 
L 2450 2944 
L 2450 3322 
L 3963 3322 
z
" transform="scale(0.015625)"/>
      <path id="DejaVuSerif-Bold-6b" d="M 2216 0 
L 219 0 
L 219 378 
L 691 378 
L 691 4488 
L 219 4488 
L 219 4863 
L 1797 4863 
L 1797 1741 
L 3138 2944 
L 2741 2944 
L 2741 3322 
L 4256 3322 
L 4256 2944 
L 3641 2944 
L 2784 2175 
L 4184 378 
L 4544 378 
L 4544 0 
L 2638 0 
L 2638 378 
L 3028 378 
L 2106 1563 
L 1797 1288 
L 1797 378 
L 2216 378 
L 2216 0 
z
" transform="scale(0.015625)"/>
      <path id="DejaVuSerif-Bold-74" d="M 634 2944 
L 153 2944 
L 153 3322 
L 634 3322 
L 634 4353 
L 1741 4353 
L 1741 3322 
L 2663 3322 
L 2663 2944 
L 1741 2944 
L 1741 909 
Q 1741 475 1809 369 
Q 1878 263 2059 263 
Q 2259 263 2356 397 
Q 2453 531 2459 813 
L 2925 813 
Q 2897 313 2651 111 
Q 2406 -91 1806 -91 
Q 1122 -91 878 123 
Q 634 338 634 909 
L 634 2944 
z
" transform="scale(0.015625)"/>
      <path id="DejaVuSerif-Bold-2b" d="M 3041 4013 
L 3041 2369 
L 4684 2369 
L 4684 1650 
L 3041 1650 
L 3041 6 
L 2322 6 
L 2322 1650 
L 678 1650 
L 678 2369 
L 2322 2369 
L 2322 4013 
L 3041 4013 
z
" transform="scale(0.015625)"/>
     </defs>
     <use xlink:href="#DejaVuSerif-Bold-5a"/>
     <use xlink:href="#DejaVuSerif-Bold-6f" x="72.998047"/>
     <use xlink:href="#DejaVuSerif-Bold-6e" x="139.697266"/>
     <use xlink:href="#DejaVuSerif-Bold-65" x="212.402344"/>
     <use xlink:href="#DejaVuSerif-Bold-20" x="276.025391"/>
     <use xlink:href="#DejaVuSerif-Bold-6f" x="310.839844"/>
     <use xlink:href="#DejaVuSerif-Bold-66" x="377.539062"/>
     <use xlink:href="#DejaVuSerif-Bold-20" x="420.556641"/>
     <use xlink:href="#DejaVuSerif-Bold-41" x="455.371094"/>
     <use xlink:href="#DejaVuSerif-Bold-76" x="528.958984"/>
     <use xlink:href="#DejaVuSerif-Bold-6f" x="587.064453"/>
     <use xlink:href="#DejaVuSerif-Bold-69" x="653.763672"/>
     <use xlink:href="#DejaVuSerif-Bold-64" x="691.751953"/>
     <use xlink:href="#DejaVuSerif-Bold-61" x="761.673828"/>
     <use xlink:href="#DejaVuSerif-Bold-6e" x="826.46875"/>
     <use xlink:href="#DejaVuSerif-Bold-63" x="899.173828"/>
     <use xlink:href="#DejaVuSerif-Bold-65" x="960.0625"/>
     <use xlink:href="#DejaVuSerif-Bold-20" x="1023.685547"/>
     <use xlink:href="#DejaVuSerif-Bold-28" x="1058.5"/>
     <use xlink:href="#DejaVuSerif-Bold-42" x="1105.814453"/>
     <use xlink:href="#DejaVuSerif-Bold-75" x="1190.335938"/>
     <use xlink:href="#DejaVuSerif-Bold-72" x="1263.041016"/>
     <use xlink:href="#DejaVuSerif-Bold-6b" x="1315.726562"/>
     <use xlink:href="#DejaVuSerif-Bold-65" x="1385.013672"/>
     <use xlink:href="#DejaVuSerif-Bold-72" x="1448.636719"/>
     <use xlink:href="#DejaVuSerif-Bold-74" x="1501.322266"/>
     <use xlink:href="#DejaVuSerif-Bold-2b" x="1547.513672"/>
     <use xlink:href="#DejaVuSerif-Bold-32" x="1631.302734"/>
     <use xlink:href="#DejaVuSerif-Bold-30" x="1700.882812"/>
     <use xlink:href="#DejaVuSerif-Bold-32" x="1770.462891"/>
     <use xlink:href="#DejaVuSerif-Bold-33" x="1840.042969"/>
     <use xlink:href="#DejaVuSerif-Bold-29" x="1909.623047"/>
    </g>
   </g>
   <g id="patch_4">
    <path d="M 144 544.68 
L 144 73.44 
" style="fill: none; stroke: #000000; stroke-width: 0.8; stroke-linejoin: miter; stroke-linecap: square"/>
   </g>
   <g id="patch_5">
    <path d="M 1036.8 544.68 
L 1036.8 73.44 
" style="fill: none; stroke: #000000; stroke-width: 0.8; stroke-linejoin: miter; stroke-linecap: square"/>
   </g>
   <g id="patch_6">
    <path d="M 144 544.68 
L 1036.8 544.68 
" style="fill: none; stroke: #000000; stroke-width: 0.8; stroke-linejoin: miter; stroke-linecap: square"/>
   </g>
   <g id="patch_7">
    <path d="M 144 73.44 
L 1036.8 73.44 
" style="fill: none; stroke: #000000; stroke-width: 0.8; stroke-linejoin: miter; stroke-linecap: square"/>
   </g>
  </g>
 </g>
 <defs>
  <clipPath id="p63d24adcdf">
   <rect x="144" y="73.44" width="892.8" height="471.24"/>
  </clipPath>
 </defs>
</svg>
